<svg width="805" height="469" viewBox="0 0 805 469" fill="none" xmlns="http://www.w3.org/2000/svg">
<rect x="3.5" y="3.5" width="798" height="462" rx="16.5" fill="black" stroke="white" stroke-width="7"/>
<path d="M73.4091 215.4C68.7157 215.4 64.3691 214.28 60.3691 212.04C56.4224 209.747 53.2491 206.467 50.8491 202.2C48.4491 197.933 47.2491 192.84 47.2491 186.92C47.2491 178.6 49.7024 171.8 54.6091 166.52C59.5157 161.24 66.2357 158.6 74.7691 158.6C77.4891 158.6 80.6091 158.733 84.1291 159C87.6491 159.267 90.8757 159.56 93.8091 159.88C93.2757 161.747 92.9291 164.013 92.7691 166.68C92.6091 169.293 92.5291 172.173 92.5291 175.32H91.5691C90.7691 172.387 89.6757 169.747 88.2891 167.4C86.9024 165 85.1691 163.107 83.0891 161.72C81.0624 160.28 78.5824 159.56 75.6491 159.56C70.6357 159.56 66.5291 161.64 63.3291 165.8C60.1824 169.907 58.6091 174.92 58.6091 180.84C58.6091 186.92 59.4891 191.987 61.2491 196.04C63.0091 200.04 65.4091 203.053 68.4491 205.08C71.4891 207.053 74.8757 208.04 78.6091 208.04C84.1557 208.04 88.9024 206.093 92.8491 202.2L93.5691 202.68C93.2491 203.533 92.6357 204.653 91.7291 206.04C90.8224 207.427 89.5691 208.84 87.9691 210.28C86.3691 211.72 84.3691 212.947 81.9691 213.96C79.5691 214.92 76.7157 215.4 73.4091 215.4ZM112.795 192.68C113.061 186.813 114.101 182.333 115.915 179.24C117.781 176.04 120.848 174.44 125.115 174.44C126.555 174.44 127.941 174.6 129.275 174.92C130.661 175.187 131.808 175.48 132.715 175.8C131.755 178.413 131.275 182.333 131.275 187.56H130.395C130.021 185.693 129.168 184.04 127.835 182.6C126.555 181.16 124.901 180.44 122.875 180.44C120.368 180.44 118.181 181.693 116.315 184.2C114.448 186.707 113.515 190.28 113.515 194.92V211C113.515 212.173 113.861 213 114.555 213.48C115.248 213.96 116.901 214.2 119.515 214.2V215H98.1547V214.2C100.768 214.2 102.421 213.96 103.115 213.48C103.808 213 104.155 212.173 104.155 211V181C104.155 179.827 103.808 179 103.115 178.52C102.421 178.04 100.768 177.8 98.1547 177.8V177C101.568 177 104.635 176.84 107.355 176.52C110.128 176.2 111.915 175.693 112.715 175H113.515L112.795 192.68ZM147.277 199.88C150.531 199.773 153.224 199.133 155.357 197.96C157.651 196.68 159.357 194.973 160.477 192.84C161.597 190.707 162.157 188.387 162.157 185.88C162.157 184.333 161.917 182.76 161.437 181.16C161.011 179.507 160.264 178.147 159.197 177.08C158.184 175.96 156.771 175.4 154.957 175.4C152.451 175.4 150.371 176.733 148.717 179.4C147.117 182.013 146.317 186.173 146.317 191.88C146.317 194.973 146.637 197.64 147.277 199.88ZM147.517 200.76C147.784 201.507 148.077 202.173 148.397 202.76C149.731 205.533 151.491 207.533 153.677 208.76C155.917 209.933 158.291 210.52 160.797 210.52C165.277 210.52 168.611 208.92 170.797 205.72L171.517 206.12C169.917 209.32 167.731 211.693 164.957 213.24C162.184 214.733 159.117 215.48 155.757 215.48C149.944 215.48 145.197 213.507 141.517 209.56C137.891 205.613 136.077 200.627 136.077 194.6C136.077 188.733 137.811 183.933 141.277 180.2C144.797 176.413 149.544 174.52 155.517 174.52C160.104 174.52 163.864 175.667 166.797 177.96C169.784 180.2 171.277 183.32 171.277 187.32C171.277 191.853 169.171 195.213 164.957 197.4C160.957 199.533 155.144 200.653 147.517 200.76ZM152.717 173H151.677L156.237 161H166.717C160.317 164.04 155.651 168.04 152.717 173ZM190.66 212.36C192.473 212.36 194.126 211.693 195.62 210.36C197.113 209.027 198.286 207.453 199.14 205.64C200.046 203.827 200.5 202.227 200.5 200.84V189.96C199.7 190.173 198.926 190.387 198.18 190.6C195.193 191.4 192.713 192.227 190.74 193.08C188.82 193.88 187.406 195.027 186.5 196.52C185.593 197.96 185.14 200.12 185.14 203C185.14 204.333 185.273 205.72 185.54 207.16C185.806 208.6 186.34 209.827 187.14 210.84C187.94 211.853 189.113 212.36 190.66 212.36ZM208.18 215.4C205.566 215.4 203.646 214.413 202.42 212.44C201.193 210.467 200.58 208.093 200.58 205.32C200.046 206.973 199.193 208.573 198.02 210.12C196.846 211.613 195.326 212.867 193.46 213.88C191.593 214.893 189.326 215.4 186.66 215.4C183.406 215.4 180.66 214.52 178.42 212.76C176.233 210.947 175.14 208.227 175.14 204.6C175.14 202.04 175.7 199.987 176.82 198.44C177.993 196.84 179.593 195.56 181.62 194.6C183.7 193.64 186.073 192.813 188.74 192.12L200.5 189.08C200.5 186.467 199.86 184.44 198.58 183C197.3 181.56 195.753 180.547 193.94 179.96C192.18 179.373 190.5 179.08 188.9 179.08C186.126 179.08 183.673 179.773 181.54 181.16C179.406 182.493 177.966 184.227 177.22 186.36L176.42 186.04C176.953 184.333 177.886 182.6 179.22 180.84C180.606 179.08 182.473 177.587 184.82 176.36C187.22 175.133 190.18 174.52 193.7 174.52C198.873 174.52 203.006 176.093 206.1 179.24C209.193 182.333 210.74 187.107 210.74 193.56V206.36C210.74 208.6 211.326 209.8 212.5 209.96C213.193 209.96 213.78 209.613 214.26 208.92C214.793 208.173 215.273 207.16 215.7 205.88L216.42 206.2C215.513 209.24 214.446 211.533 213.22 213.08C212.046 214.627 210.366 215.4 208.18 215.4ZM232.456 177H241.976V177.8H232.456V202.92C232.456 205.32 232.856 207.053 233.656 208.12C234.456 209.133 235.443 209.64 236.616 209.64C237.683 209.64 238.616 209.293 239.416 208.6C240.269 207.853 240.856 206.92 241.176 205.8L241.976 206.04C241.709 207.267 241.203 208.6 240.456 210.04C239.709 211.48 238.669 212.733 237.336 213.8C236.003 214.867 234.296 215.4 232.216 215.4C229.443 215.4 227.203 214.36 225.496 212.28C223.843 210.147 223.016 207.373 223.016 203.96V177.8H217.336V177C219.736 177 221.869 176.387 223.736 175.16C225.603 173.88 227.176 172.307 228.456 170.44C229.789 168.573 230.856 166.653 231.656 164.68H232.456V177ZM254.477 169.56C252.824 169.56 251.491 169.053 250.477 168.04C249.464 167.027 248.957 165.693 248.957 164.04C248.957 162.333 249.464 161 250.477 160.04C251.491 159.027 252.824 158.52 254.477 158.52C256.131 158.52 257.464 159.027 258.477 160.04C259.491 161 259.997 162.333 259.997 164.04C259.997 167.4 258.157 169.24 254.477 169.56ZM266.077 215H244.717V214.2C247.331 214.2 248.984 213.96 249.677 213.48C250.371 213 250.717 212.173 250.717 211V181C250.717 179.827 250.371 179 249.677 178.52C248.984 178.04 247.331 177.8 244.717 177.8V177C248.131 177 251.197 176.84 253.917 176.52C256.691 176.2 258.477 175.693 259.277 175H260.077V211C260.077 212.173 260.424 213 261.117 213.48C261.811 213.96 263.464 214.2 266.077 214.2V215ZM290.528 214.68C293.728 214.68 296.128 212.92 297.728 209.4C299.382 205.827 300.208 201.027 300.208 195C300.208 188.973 299.382 184.2 297.728 180.68C296.128 177.107 293.728 175.32 290.528 175.32C287.328 175.32 284.902 177.107 283.248 180.68C281.648 184.2 280.848 188.973 280.848 195C280.848 201.027 281.648 205.827 283.248 209.4C284.902 212.92 287.328 214.68 290.528 214.68ZM290.528 215.48C284.662 215.48 279.862 213.587 276.128 209.8C272.448 205.96 270.608 201.027 270.608 195C270.608 188.973 272.448 184.067 276.128 180.28C279.808 176.44 284.608 174.52 290.528 174.52C296.448 174.52 301.248 176.44 304.928 180.28C308.608 184.067 310.448 188.973 310.448 195C310.448 201.027 308.608 205.96 304.928 209.8C301.248 213.587 296.448 215.48 290.528 215.48ZM361.862 215H340.502V214.2C343.168 214.2 344.822 213.96 345.462 213.48C346.155 213 346.502 212.173 346.502 211V193.64C346.502 188.093 345.622 183.88 343.862 181C342.102 178.12 339.915 176.68 337.302 176.68C334.688 176.68 332.635 177.96 331.142 180.52C329.702 183.08 328.982 186.013 328.982 189.32V211C328.982 212.173 329.328 213 330.022 213.48C330.715 213.96 332.368 214.2 334.982 214.2V215H313.622V214.2C316.235 214.2 317.888 213.96 318.582 213.48C319.275 213 319.622 212.173 319.622 211V181C319.622 179.773 319.275 178.947 318.582 178.52C317.888 178.04 316.235 177.8 313.622 177.8V177C317.035 177 320.102 176.84 322.822 176.52C325.595 176.2 327.382 175.693 328.182 175H328.982V182.68C329.782 180.333 331.195 178.387 333.222 176.84C335.302 175.293 337.942 174.52 341.142 174.52C345.568 174.52 349.115 176.12 351.782 179.32C354.502 182.52 355.862 187.293 355.862 193.64V211C355.862 212.173 356.208 213 356.902 213.48C357.595 213.96 359.248 214.2 361.862 214.2V215ZM406.929 213.48C408.956 213.48 410.796 212.627 412.449 210.92C414.156 209.213 415.009 207.187 415.009 204.84V189.32C415.009 187.453 414.689 185.56 414.049 183.64C413.462 181.667 412.582 180.04 411.409 178.76C410.236 177.427 408.769 176.76 407.009 176.76C404.556 176.76 402.342 178.307 400.369 181.4C398.449 184.493 397.489 189.08 397.489 195.16C397.489 201.027 398.396 205.56 400.209 208.76C402.076 211.907 404.316 213.48 406.929 213.48ZM403.329 215.48C400.449 215.48 397.782 214.76 395.329 213.32C392.929 211.827 390.982 209.613 389.489 206.68C387.996 203.693 387.249 199.933 387.249 195.4C387.249 188.893 388.742 183.8 391.729 180.12C394.769 176.387 398.529 174.52 403.009 174.52C406.156 174.52 408.796 175.347 410.929 177C413.062 178.653 414.422 180.733 415.009 183.24V161C415.009 159.773 414.662 158.947 413.969 158.52C413.329 158.04 411.702 157.8 409.089 157.8V157C412.502 157 415.569 156.84 418.289 156.52C421.009 156.2 422.796 155.693 423.649 155H424.449V206.36C424.449 208.6 425.276 209.8 426.929 209.96C428.476 209.96 429.649 208.6 430.449 205.88L431.169 206.2C430.636 207.747 429.996 209.213 429.249 210.6C428.556 211.987 427.622 213.133 426.449 214.04C425.329 214.947 423.836 215.4 421.969 215.4C420.156 215.4 418.529 214.867 417.089 213.8C415.702 212.733 415.009 210.973 415.009 208.52C414.262 210.547 412.849 212.227 410.769 213.56C408.742 214.84 406.262 215.48 403.329 215.48ZM445.797 199.88C449.05 199.773 451.743 199.133 453.877 197.96C456.17 196.68 457.877 194.973 458.997 192.84C460.117 190.707 460.677 188.387 460.677 185.88C460.677 184.333 460.437 182.76 459.957 181.16C459.53 179.507 458.783 178.147 457.717 177.08C456.703 175.96 455.29 175.4 453.477 175.4C450.97 175.4 448.89 176.733 447.237 179.4C445.637 182.013 444.837 186.173 444.837 191.88C444.837 194.973 445.157 197.64 445.797 199.88ZM446.037 200.76C446.303 201.507 446.597 202.173 446.917 202.76C448.25 205.533 450.01 207.533 452.197 208.76C454.437 209.933 456.81 210.52 459.317 210.52C463.797 210.52 467.13 208.92 469.317 205.72L470.037 206.12C468.437 209.32 466.25 211.693 463.477 213.24C460.703 214.733 457.637 215.48 454.277 215.48C448.463 215.48 443.717 213.507 440.037 209.56C436.41 205.613 434.597 200.627 434.597 194.6C434.597 188.733 436.33 183.933 439.797 180.2C443.317 176.413 448.063 174.52 454.037 174.52C458.623 174.52 462.383 175.667 465.317 177.96C468.303 180.2 469.797 183.32 469.797 187.32C469.797 191.853 467.69 195.213 463.477 197.4C459.477 199.533 453.663 200.653 446.037 200.76ZM516.929 215.48C511.116 215.48 506.369 213.533 502.689 209.64C499.062 205.693 497.249 200.733 497.249 194.76C497.249 188.787 499.142 183.933 502.929 180.2C506.769 176.413 511.969 174.52 518.529 174.52C521.302 174.68 523.089 174.787 523.889 174.84C524.476 174.84 525.009 174.867 525.489 174.92C525.969 174.973 526.662 175.027 527.569 175.08C528.476 175.133 529.889 175.24 531.809 175.4C531.436 176.733 531.196 178.44 531.089 180.52C530.982 182.6 530.929 184.733 530.929 186.92H530.209C529.356 183.613 527.862 180.867 525.729 178.68C523.649 176.493 521.142 175.4 518.209 175.4C515.062 175.4 512.476 176.84 510.449 179.72C508.476 182.547 507.489 186.573 507.489 191.8C507.489 196.12 508.182 199.667 509.569 202.44C510.956 205.213 512.742 207.267 514.929 208.6C517.169 209.88 519.569 210.52 522.129 210.52C526.449 210.52 529.729 208.92 531.969 205.72L532.689 206.12C531.089 209.32 528.902 211.693 526.129 213.24C523.356 214.733 520.289 215.48 516.929 215.48ZM555.06 214.68C558.26 214.68 560.66 212.92 562.26 209.4C563.913 205.827 564.74 201.027 564.74 195C564.74 188.973 563.913 184.2 562.26 180.68C560.66 177.107 558.26 175.32 555.06 175.32C551.86 175.32 549.433 177.107 547.78 180.68C546.18 184.2 545.38 188.973 545.38 195C545.38 201.027 546.18 205.827 547.78 209.4C549.433 212.92 551.86 214.68 555.06 214.68ZM555.06 215.48C549.193 215.48 544.393 213.587 540.66 209.8C536.98 205.96 535.14 201.027 535.14 195C535.14 188.973 536.98 184.067 540.66 180.28C544.34 176.44 549.14 174.52 555.06 174.52C560.98 174.52 565.78 176.44 569.46 180.28C573.14 184.067 574.98 188.973 574.98 195C574.98 201.027 573.14 205.96 569.46 209.8C565.78 213.587 560.98 215.48 555.06 215.48ZM618.854 188.28C619.014 186.68 619.441 184.947 620.134 183.08C620.987 180.733 622.294 178.733 624.054 177.08C625.814 175.373 628.001 174.52 630.614 174.52C634.934 174.52 638.267 176.173 640.614 179.48C642.961 182.733 644.134 187.453 644.134 193.64V211C644.134 212.173 644.481 213 645.174 213.48C645.867 213.96 647.521 214.2 650.134 214.2V215H628.774V214.2C631.441 214.2 633.094 213.96 633.734 213.48C634.427 213 634.774 212.173 634.774 211V193.64C634.774 188.093 634.107 183.96 632.774 181.24C631.441 178.467 629.654 177.08 627.414 177.08C625.281 177.08 623.627 178.147 622.454 180.28C621.281 182.36 620.454 184.813 619.974 187.64C619.494 190.413 619.254 192.867 619.254 195V211C619.254 212.173 619.601 213 620.294 213.48C620.987 213.96 622.641 214.2 625.254 214.2V215H603.894V214.2C606.561 214.2 608.214 213.96 608.854 213.48C609.547 213 609.894 212.173 609.894 211V193.64C609.894 188.093 609.227 183.96 607.894 181.24C606.614 178.467 604.881 177.08 602.694 177.08C600.561 177.08 598.881 178.147 597.654 180.28C596.481 182.36 595.627 184.813 595.094 187.64C594.614 190.413 594.374 192.867 594.374 195V211C594.374 212.173 594.721 213 595.414 213.48C596.107 213.96 597.761 214.2 600.374 214.2V215H579.014V214.2C581.627 214.2 583.281 213.96 583.974 213.48C584.667 213 585.014 212.173 585.014 211V181C585.014 179.773 584.667 178.947 583.974 178.52C583.281 178.04 581.627 177.8 579.014 177.8V177C582.427 177 585.494 176.84 588.214 176.52C590.987 176.2 592.774 175.693 593.574 175H594.374V185.88C594.587 184.973 594.881 184.04 595.254 183.08C596.107 180.733 597.414 178.733 599.174 177.08C600.934 175.373 603.174 174.52 605.894 174.52C613.254 174.52 617.574 179.107 618.854 188.28ZM673.235 213.64C675.902 213.64 678.142 212.067 679.955 208.92C681.769 205.72 682.675 201.32 682.675 195.72C682.675 189.373 681.769 184.627 679.955 181.48C678.195 178.28 675.982 176.68 673.315 176.68C670.755 176.68 668.755 177.96 667.315 180.52C665.875 183.08 665.155 186.013 665.155 189.32V204.84C665.155 207.187 665.982 209.24 667.635 211C669.342 212.76 671.209 213.64 673.235 213.64ZM670.835 235H649.795V234.2C652.409 234.2 654.062 233.96 654.755 233.48C655.449 233 655.795 232.173 655.795 231V181.08C655.795 179.853 655.449 179.027 654.755 178.6C654.062 178.12 652.409 177.88 649.795 177.88V177C653.209 177 656.275 176.867 658.995 176.6C661.769 176.28 663.555 175.747 664.355 175H665.155V183.08C665.902 180.733 667.289 178.733 669.315 177.08C671.342 175.373 673.955 174.52 677.155 174.52C681.689 174.52 685.449 176.36 688.435 180.04C691.422 183.72 692.915 188.813 692.915 195.32C692.915 199.853 692.169 203.613 690.675 206.6C689.235 209.587 687.315 211.827 684.915 213.32C682.515 214.76 679.875 215.48 676.995 215.48C674.009 215.48 671.422 214.813 669.235 213.48C667.049 212.093 665.582 210.387 664.835 208.36V231C664.835 232.173 665.182 233 665.875 233.48C666.569 233.96 668.222 234.2 670.835 234.2V235ZM710.737 177H720.257V177.8H710.737V202.92C710.737 205.32 711.137 207.053 711.937 208.12C712.737 209.133 713.724 209.64 714.897 209.64C715.964 209.64 716.897 209.293 717.697 208.6C718.551 207.853 719.137 206.92 719.457 205.8L720.257 206.04C719.991 207.267 719.484 208.6 718.737 210.04C717.991 211.48 716.951 212.733 715.617 213.8C714.284 214.867 712.577 215.4 710.497 215.4C707.724 215.4 705.484 214.36 703.777 212.28C702.124 210.147 701.297 207.373 701.297 203.96V177.8H695.617V177C698.017 177 700.151 176.387 702.017 175.16C703.884 173.88 705.457 172.307 706.737 170.44C708.071 168.573 709.137 166.653 709.937 164.68H710.737V177ZM734.781 199.88C738.034 199.773 740.728 199.133 742.861 197.96C745.154 196.68 746.861 194.973 747.981 192.84C749.101 190.707 749.661 188.387 749.661 185.88C749.661 184.333 749.421 182.76 748.941 181.16C748.514 179.507 747.768 178.147 746.701 177.08C745.688 175.96 744.274 175.4 742.461 175.4C739.954 175.4 737.874 176.733 736.221 179.4C734.621 182.013 733.821 186.173 733.821 191.88C733.821 194.973 734.141 197.64 734.781 199.88ZM735.021 200.76C735.288 201.507 735.581 202.173 735.901 202.76C737.234 205.533 738.994 207.533 741.181 208.76C743.421 209.933 745.794 210.52 748.301 210.52C752.781 210.52 756.114 208.92 758.301 205.72L759.021 206.12C757.421 209.32 755.234 211.693 752.461 213.24C749.688 214.733 746.621 215.48 743.261 215.48C737.448 215.48 732.701 213.507 729.021 209.56C725.394 205.613 723.581 200.627 723.581 194.6C723.581 188.733 725.314 183.933 728.781 180.2C732.301 176.413 737.048 174.52 743.021 174.52C747.608 174.52 751.368 175.667 754.301 177.96C757.288 180.2 758.781 183.32 758.781 187.32C758.781 191.853 756.674 195.213 752.461 197.4C748.461 199.533 742.648 200.653 735.021 200.76ZM306.037 286.68C306.304 280.813 307.344 276.333 309.157 273.24C311.024 270.04 314.09 268.44 318.357 268.44C319.797 268.44 321.184 268.6 322.517 268.92C323.904 269.187 325.05 269.48 325.957 269.8C324.997 272.413 324.517 276.333 324.517 281.56H323.637C323.264 279.693 322.41 278.04 321.077 276.6C319.797 275.16 318.144 274.44 316.117 274.44C313.61 274.44 311.424 275.693 309.557 278.2C307.69 280.707 306.757 284.28 306.757 288.92V305C306.757 306.173 307.104 307 307.797 307.48C308.49 307.96 310.144 308.2 312.757 308.2V309H291.397V308.2C294.01 308.2 295.664 307.96 296.357 307.48C297.05 307 297.397 306.173 297.397 305V275C297.397 273.827 297.05 273 296.357 272.52C295.664 272.04 294.01 271.8 291.397 271.8V271C294.81 271 297.877 270.84 300.597 270.52C303.37 270.2 305.157 269.693 305.957 269H306.757L306.037 286.68ZM340.519 293.88C343.773 293.773 346.466 293.133 348.599 291.96C350.893 290.68 352.599 288.973 353.719 286.84C354.839 284.707 355.399 282.387 355.399 279.88C355.399 278.333 355.159 276.76 354.679 275.16C354.253 273.507 353.506 272.147 352.439 271.08C351.426 269.96 350.013 269.4 348.199 269.4C345.693 269.4 343.613 270.733 341.959 273.4C340.359 276.013 339.559 280.173 339.559 285.88C339.559 288.973 339.879 291.64 340.519 293.88ZM340.759 294.76C341.026 295.507 341.319 296.173 341.639 296.76C342.973 299.533 344.733 301.533 346.919 302.76C349.159 303.933 351.533 304.52 354.039 304.52C358.519 304.52 361.853 302.92 364.039 299.72L364.759 300.12C363.159 303.32 360.973 305.693 358.199 307.24C355.426 308.733 352.359 309.48 348.999 309.48C343.186 309.48 338.439 307.507 334.759 303.56C331.133 299.613 329.319 294.627 329.319 288.6C329.319 282.733 331.053 277.933 334.519 274.2C338.039 270.413 342.786 268.52 348.759 268.52C353.346 268.52 357.106 269.667 360.039 271.96C363.026 274.2 364.519 277.32 364.519 281.32C364.519 285.853 362.413 289.213 358.199 291.4C354.199 293.533 348.386 294.653 340.759 294.76ZM345.959 267H344.919L349.479 255H359.959C353.559 258.04 348.893 262.04 345.959 267ZM386.302 309.48C382.995 309.48 380.275 308.733 378.142 307.24C376.062 305.747 374.515 303.693 373.502 301.08C372.489 298.467 371.982 295.507 371.982 292.2V275C371.982 273.773 371.635 272.947 370.942 272.52C370.249 272.093 368.595 271.88 365.982 271.88V271C369.395 271 372.462 270.867 375.182 270.6C377.955 270.28 379.742 269.747 380.542 269H381.342V292.2C381.342 295.88 381.742 298.84 382.542 301.08C383.342 303.267 384.409 304.867 385.742 305.88C387.075 306.84 388.515 307.32 390.062 307.32C392.889 307.32 395.049 306.04 396.542 303.48C398.089 300.92 398.862 298.013 398.862 294.76V275.08C398.862 273.853 398.515 273.027 397.822 272.6C397.129 272.12 395.475 271.88 392.862 271.88V271.08C396.275 271.08 399.342 270.947 402.062 270.68C404.782 270.36 406.569 269.827 407.422 269.08H408.222V300.36C408.222 301.693 408.462 302.627 408.942 303.16C409.422 303.693 409.982 303.96 410.622 303.96C411.422 303.96 412.115 303.613 412.702 302.92C413.289 302.173 413.795 301.16 414.222 299.88L414.942 300.2C414.409 301.747 413.795 303.213 413.102 304.6C412.409 305.987 411.475 307.133 410.302 308.04C409.182 308.947 407.689 309.4 405.822 309.4C403.475 309.4 401.715 308.6 400.542 307C399.422 305.347 398.862 303.453 398.862 301.32C398.062 303.72 396.622 305.693 394.542 307.24C392.462 308.733 389.715 309.48 386.302 309.48ZM435.232 309.56C431.819 309.56 428.645 309.027 425.712 307.96C424.699 307.48 423.819 307.24 423.072 307.24C421.792 307.24 421.205 307.987 421.312 309.48H420.512C420.512 306.493 420.352 303.96 420.032 301.88C419.765 299.747 419.312 297.56 418.672 295.32L419.552 294.92C420.992 299.293 423.045 302.68 425.712 305.08C428.432 307.48 431.365 308.68 434.512 308.68C436.912 308.68 438.752 308.067 440.032 306.84C441.312 305.613 441.952 304.12 441.952 302.36C441.952 300.76 441.419 299.347 440.352 298.12C439.339 296.893 438.005 295.8 436.352 294.84C434.699 293.88 432.939 292.92 431.072 291.96C428.992 290.947 426.992 289.88 425.072 288.76C423.205 287.587 421.632 286.253 420.352 284.76C419.125 283.213 418.512 281.347 418.512 279.16C418.512 275.907 420.005 273.32 422.992 271.4C425.979 269.48 429.899 268.52 434.752 268.52L449.472 269.4C448.725 272.707 448.352 276.573 448.352 281H447.552C446.752 277.64 445.179 274.867 442.832 272.68C440.539 270.493 437.925 269.4 434.992 269.4C432.965 269.4 431.285 269.96 429.952 271.08C428.619 272.2 427.952 273.533 427.952 275.08C427.952 276.413 428.405 277.64 429.312 278.76C430.272 279.827 431.499 280.84 432.992 281.8C434.539 282.707 436.192 283.613 437.952 284.52C440.139 285.693 442.245 286.947 444.272 288.28C446.299 289.56 447.979 291.08 449.312 292.84C450.699 294.6 451.392 296.68 451.392 299.08C451.392 302.493 449.952 305.107 447.072 306.92C444.192 308.68 440.245 309.56 435.232 309.56ZM472.732 309.56C469.319 309.56 466.145 309.027 463.212 307.96C462.199 307.48 461.319 307.24 460.572 307.24C459.292 307.24 458.705 307.987 458.812 309.48H458.012C458.012 306.493 457.852 303.96 457.532 301.88C457.265 299.747 456.812 297.56 456.172 295.32L457.052 294.92C458.492 299.293 460.545 302.68 463.212 305.08C465.932 307.48 468.865 308.68 472.012 308.68C474.412 308.68 476.252 308.067 477.532 306.84C478.812 305.613 479.452 304.12 479.452 302.36C479.452 300.76 478.919 299.347 477.852 298.12C476.839 296.893 475.505 295.8 473.852 294.84C472.199 293.88 470.439 292.92 468.572 291.96C466.492 290.947 464.492 289.88 462.572 288.76C460.705 287.587 459.132 286.253 457.852 284.76C456.625 283.213 456.012 281.347 456.012 279.16C456.012 275.907 457.505 273.32 460.492 271.4C463.479 269.48 467.399 268.52 472.252 268.52L486.972 269.4C486.225 272.707 485.852 276.573 485.852 281H485.052C484.252 277.64 482.679 274.867 480.332 272.68C478.039 270.493 475.425 269.4 472.492 269.4C470.465 269.4 468.785 269.96 467.452 271.08C466.119 272.2 465.452 273.533 465.452 275.08C465.452 276.413 465.905 277.64 466.812 278.76C467.772 279.827 468.999 280.84 470.492 281.8C472.039 282.707 473.692 283.613 475.452 284.52C477.639 285.693 479.745 286.947 481.772 288.28C483.799 289.56 485.479 291.08 486.812 292.84C488.199 294.6 488.892 296.68 488.892 299.08C488.892 302.493 487.452 305.107 484.572 306.92C481.692 308.68 477.745 309.56 472.732 309.56ZM503.032 263.56C501.379 263.56 500.045 263.053 499.032 262.04C498.019 261.027 497.512 259.693 497.512 258.04C497.512 256.333 498.019 255 499.032 254.04C500.045 253.027 501.379 252.52 503.032 252.52C504.685 252.52 506.019 253.027 507.032 254.04C508.045 255 508.552 256.333 508.552 258.04C508.552 261.4 506.712 263.24 503.032 263.56ZM514.632 309H493.272V308.2C495.885 308.2 497.539 307.96 498.232 307.48C498.925 307 499.272 306.173 499.272 305V275C499.272 273.827 498.925 273 498.232 272.52C497.539 272.04 495.885 271.8 493.272 271.8V271C496.685 271 499.752 270.84 502.472 270.52C505.245 270.2 507.032 269.693 507.832 269H508.632V305C508.632 306.173 508.979 307 509.672 307.48C510.365 307.96 512.019 308.2 514.632 308.2V309Z" fill="white"/>
</svg>
