<svg width="686" height="474" viewBox="0 0 686 474" fill="none" xmlns="http://www.w3.org/2000/svg">
<g filter="url(#filter0_f_780_267)">
<rect x="13" y="461" width="448" height="660" rx="15" transform="rotate(-90 13 461)" fill="white"/>
</g>
<rect x="23" y="450" width="425" height="640" rx="15" transform="rotate(-90 23 450)" fill="black"/>
<path d="M199.107 138.136V138.904C197.016 138.904 195.651 139.075 195.011 139.416C194.371 139.757 194.051 140.419 194.051 141.4V179.736C194.051 180.675 194.371 181.336 195.011 181.72C195.651 182.061 197.016 182.232 199.107 182.232V182.936H180.611V182.232C182.744 182.232 184.131 182.04 184.771 181.656C185.411 181.272 185.731 180.611 185.731 179.672V143.064L169.731 183H168.899L152.899 142.872V179.736C152.899 180.675 153.219 181.336 153.859 181.72C154.499 182.104 155.864 182.296 157.955 182.296V183H147.011V182.296C149.101 182.296 150.467 182.104 151.107 181.72C151.747 181.336 152.067 180.675 152.067 179.736V141.464C152.067 140.525 151.747 139.864 151.107 139.48C150.467 139.096 149.101 138.904 147.011 138.904V138.2H159.875L173.315 171.864L186.819 138.136H199.107ZM216.009 160.152H230.985C231.923 160.152 232.755 159.832 233.481 159.192C234.206 158.509 234.569 157.123 234.569 155.032H235.273V165.912H234.569C234.569 163.821 234.206 162.456 233.481 161.816C232.755 161.176 231.923 160.856 230.985 160.856H216.009V182.296H227.017C229.107 182.296 231.049 181.72 232.841 180.568C234.633 179.373 236.126 177.923 237.321 176.216C238.558 174.467 239.39 172.675 239.817 170.84H240.457C240.457 172.632 240.499 174.808 240.585 177.368C240.67 179.928 240.862 181.805 241.161 183H202.697V182.296C204.787 182.296 206.153 182.104 206.793 181.72C207.475 181.336 207.817 180.675 207.817 179.736V141.464C207.817 140.525 207.475 139.864 206.793 139.48C206.153 139.096 204.787 138.904 202.697 138.904V138.2H240.201C239.902 139.309 239.71 140.845 239.625 142.808C239.539 144.771 239.497 146.648 239.497 148.44H238.857C238.174 145.709 236.702 143.448 234.441 141.656C232.222 139.821 229.534 138.904 226.377 138.904H216.009V160.152ZM257.509 159.768H261.797C268.453 159.768 271.802 156.312 271.845 149.4C271.845 142.488 268.495 139.011 261.797 138.968H257.509V159.768ZM257.509 160.536V179.736C257.509 180.675 257.829 181.336 258.469 181.72C259.151 182.104 260.538 182.296 262.629 182.296V183H244.197V182.296C246.287 182.296 247.653 182.104 248.293 181.72C248.975 181.336 249.317 180.675 249.317 179.736V141.464C249.317 140.525 248.975 139.864 248.293 139.48C247.653 139.096 246.287 138.904 244.197 138.904V138.2H261.797C274.597 138.2 280.954 141.933 280.869 149.4C280.869 156.952 274.511 160.664 261.797 160.536H259.493C260.858 160.877 262.181 161.155 263.461 161.368C264.783 161.581 266.17 161.688 267.621 161.688L274.661 171.416C275.301 172.312 276.282 173.613 277.605 175.32C278.927 176.984 280.335 178.563 281.829 180.056C283.365 181.549 284.623 182.296 285.605 182.296V183C281.125 183 277.477 182.509 274.661 181.528C271.845 180.504 269.583 178.712 267.877 176.152L257.509 160.536ZM307.452 183.32C303.698 183.32 300.22 182.424 297.02 180.632C293.863 178.797 291.324 176.173 289.404 172.76C287.484 169.347 286.524 165.272 286.524 160.536C286.524 153.88 288.487 148.44 292.412 144.216C296.338 139.992 301.714 137.88 308.54 137.88C310.716 137.88 313.212 137.987 316.028 138.2C318.844 138.413 321.426 138.648 323.772 138.904C323.346 140.397 323.068 142.211 322.94 144.344C322.812 146.435 322.748 148.739 322.748 151.256H321.98C321.34 148.909 320.466 146.797 319.356 144.92C318.247 143 316.86 141.485 315.196 140.376C313.575 139.224 311.591 138.648 309.244 138.648C305.234 138.648 301.948 140.312 299.388 143.64C296.871 146.925 295.612 150.936 295.612 155.672C295.612 160.536 296.316 164.589 297.724 167.832C299.132 171.032 301.052 173.443 303.484 175.064C305.916 176.643 308.626 177.432 311.612 177.432C316.05 177.432 319.847 175.875 323.004 172.76L323.58 173.144C323.324 173.827 322.834 174.723 322.108 175.832C321.383 176.941 320.38 178.072 319.1 179.224C317.82 180.376 316.22 181.357 314.3 182.168C312.38 182.936 310.098 183.32 307.452 183.32ZM346.129 183H327.697V182.296C329.787 182.296 331.153 182.104 331.793 181.72C332.475 181.336 332.817 180.675 332.817 179.736V141.464C332.817 140.525 332.475 139.864 331.793 139.48C331.153 139.096 329.787 138.904 327.697 138.904V138.2H346.129V138.904C344.038 138.904 342.651 139.096 341.969 139.48C341.329 139.821 341.009 140.483 341.009 141.464V179.736C341.009 180.675 341.329 181.336 341.969 181.72C342.651 182.104 344.038 182.296 346.129 182.296V183ZM380.134 163.096H385.638C392.294 163.096 395.643 159.085 395.686 151.064C395.686 143.043 392.336 139.011 385.638 138.968H380.134V163.096ZM380.134 163.864V179.736C380.134 180.675 380.454 181.336 381.094 181.72C381.776 182.104 383.163 182.296 385.254 182.296V183H366.822V182.296C368.912 182.296 370.278 182.104 370.918 181.72C371.6 181.336 371.942 180.675 371.942 179.736V141.464C371.942 140.525 371.6 139.864 370.918 139.48C370.278 139.096 368.912 138.904 366.822 138.904V138.2H385.638C398.438 138.2 404.902 142.488 405.03 151.064C405.03 159.512 398.566 163.779 385.638 163.864H380.134ZM429.854 182.744C432.286 182.744 434.505 181.912 436.51 180.248C438.558 178.541 440.18 176.045 441.374 172.76C442.612 169.475 443.23 165.443 443.23 160.664C443.23 155.843 442.612 151.811 441.374 148.568C440.18 145.283 438.558 142.808 436.51 141.144C434.505 139.48 432.286 138.648 429.854 138.648C427.508 138.648 425.332 139.437 423.326 141.016C421.364 142.595 419.764 145.005 418.526 148.248C417.332 151.491 416.734 155.629 416.734 160.664C416.734 165.656 417.332 169.795 418.526 173.08C419.764 176.323 421.364 178.755 423.326 180.376C425.332 181.955 427.508 182.744 429.854 182.744ZM429.982 183.384C423.412 183.384 418.057 181.272 413.918 177.048C409.822 172.824 407.774 167.363 407.774 160.664C407.774 153.965 409.801 148.504 413.854 144.28C417.95 140.056 423.326 137.944 429.982 137.944C436.596 137.944 441.95 140.056 446.046 144.28C450.142 148.504 452.19 153.965 452.19 160.664C452.19 167.363 450.142 172.824 446.046 177.048C441.95 181.272 436.596 183.384 429.982 183.384ZM475.878 183.384C470.672 183.384 466.64 182.019 463.782 179.288C460.923 176.557 459.494 172.675 459.494 167.64V141.464C459.494 140.525 459.152 139.864 458.47 139.48C457.83 139.096 456.464 138.904 454.374 138.904V138.2H472.806V138.904C470.715 138.904 469.328 139.096 468.646 139.48C468.006 139.821 467.686 140.483 467.686 141.464V167.256C467.686 169.987 467.984 172.44 468.582 174.616C469.222 176.792 470.331 178.52 471.91 179.8C473.488 181.08 475.728 181.72 478.63 181.72C481.744 181.72 484.219 181.016 486.054 179.608C487.931 178.2 489.275 176.387 490.086 174.168C490.939 171.907 491.366 169.581 491.366 167.192V141.464C491.366 140.525 491.024 139.864 490.342 139.48C489.702 139.096 488.336 138.904 486.246 138.904V138.2H497.19V138.904C495.099 138.904 493.712 139.096 493.03 139.48C492.39 139.821 492.07 140.483 492.07 141.464V167.704C492.07 170.733 491.494 173.443 490.342 175.832C489.232 178.179 487.483 180.035 485.094 181.4C482.747 182.723 479.675 183.384 475.878 183.384ZM513.509 159.768H517.797C524.453 159.768 527.802 156.312 527.845 149.4C527.845 142.488 524.495 139.011 517.797 138.968H513.509V159.768ZM513.509 160.536V179.736C513.509 180.675 513.829 181.336 514.469 181.72C515.151 182.104 516.538 182.296 518.629 182.296V183H500.197V182.296C502.287 182.296 503.653 182.104 504.293 181.72C504.975 181.336 505.317 180.675 505.317 179.736V141.464C505.317 140.525 504.975 139.864 504.293 139.48C503.653 139.096 502.287 138.904 500.197 138.904V138.2H517.797C530.597 138.2 536.954 141.933 536.869 149.4C536.869 156.952 530.511 160.664 517.797 160.536H515.493C516.858 160.877 518.181 161.155 519.461 161.368C520.783 161.581 522.17 161.688 523.621 161.688L530.661 171.416C531.301 172.312 532.282 173.613 533.605 175.32C534.927 176.984 536.335 178.563 537.829 180.056C539.365 181.549 540.623 182.296 541.605 182.296V183C537.125 183 533.477 182.509 530.661 181.528C527.845 180.504 525.583 178.712 523.877 176.152L513.509 160.536ZM259.16 259H256.728L240.92 221.048C240.066 218.957 239.106 217.4 238.04 216.376C236.973 215.352 235.629 214.84 234.008 214.84V214.2H253.336V214.84C252.098 214.84 251.01 215.032 250.072 215.416C249.176 215.8 248.728 216.419 248.728 217.272C248.728 217.571 248.792 217.912 248.92 218.296L261.72 249.336L272.472 218.616C272.642 218.061 272.728 217.635 272.728 217.336V217.272C272.728 216.504 272.301 215.907 271.448 215.48C270.594 215.053 269.549 214.84 268.312 214.84V214.2H279.32V214.904C277.741 214.904 276.44 215.267 275.416 215.992C274.392 216.675 273.688 217.507 273.304 218.488L259.16 259ZM299.636 258.744C302.068 258.744 304.286 257.912 306.292 256.248C308.34 254.541 309.961 252.045 311.156 248.76C312.393 245.475 313.012 241.443 313.012 236.664C313.012 231.843 312.393 227.811 311.156 224.568C309.961 221.283 308.34 218.808 306.292 217.144C304.286 215.48 302.068 214.648 299.636 214.648C297.289 214.648 295.113 215.437 293.108 217.016C291.145 218.595 289.545 221.005 288.308 224.248C287.113 227.491 286.516 231.629 286.516 236.664C286.516 241.656 287.113 245.795 288.308 249.08C289.545 252.323 291.145 254.755 293.108 256.376C295.113 257.955 297.289 258.744 299.636 258.744ZM299.764 259.384C293.193 259.384 287.838 257.272 283.7 253.048C279.604 248.824 277.556 243.363 277.556 236.664C277.556 229.965 279.582 224.504 283.635 220.28C287.732 216.056 293.108 213.944 299.764 213.944C306.377 213.944 311.732 216.056 315.828 220.28C319.924 224.504 321.972 229.965 321.972 236.664C321.972 243.363 319.924 248.824 315.828 253.048C311.732 257.272 306.377 259.384 299.764 259.384ZM354.386 259H335.954V258.296C338.044 258.296 339.41 258.104 340.05 257.72C340.732 257.336 341.074 256.675 341.074 255.736V214.904H336.146C333.031 214.904 330.343 215.821 328.082 217.656C325.863 219.448 324.412 221.709 323.73 224.44H323.09C323.09 222.648 323.026 220.771 322.898 218.808C322.812 216.845 322.642 215.309 322.386 214.2H368.018C367.719 215.309 367.527 216.845 367.442 218.808C367.356 220.771 367.314 222.648 367.314 224.44H366.674C365.991 221.709 364.519 219.448 362.258 217.656C360.039 215.821 357.351 214.904 354.194 214.904H349.266V255.736C349.266 256.675 349.586 257.336 350.226 257.72C350.908 258.104 352.295 258.296 354.386 258.296V259ZM383.54 235.768H387.828C394.484 235.768 397.833 232.312 397.876 225.4C397.876 218.488 394.527 215.011 387.828 214.968H383.54V235.768ZM383.54 236.536V255.736C383.54 256.675 383.86 257.336 384.5 257.72C385.183 258.104 386.569 258.296 388.66 258.296V259H370.228V258.296C372.319 258.296 373.684 258.104 374.324 257.72C375.007 257.336 375.348 256.675 375.348 255.736V217.464C375.348 216.525 375.007 215.864 374.324 215.48C373.684 215.096 372.319 214.904 370.228 214.904V214.2H387.828C400.628 214.2 406.985 217.933 406.9 225.4C406.9 232.952 400.543 236.664 387.828 236.536H385.524C386.889 236.877 388.212 237.155 389.492 237.368C390.815 237.581 392.201 237.688 393.652 237.688L400.692 247.416C401.332 248.312 402.313 249.613 403.636 251.32C404.959 252.984 406.367 254.563 407.86 256.056C409.396 257.549 410.655 258.296 411.636 258.296V259C407.156 259 403.508 258.509 400.692 257.528C397.876 256.504 395.615 254.712 393.908 252.152L383.54 236.536ZM426.853 236.152H441.829C442.767 236.152 443.599 235.832 444.325 235.192C445.05 234.509 445.413 233.123 445.413 231.032H446.117V241.912H445.413C445.413 239.821 445.05 238.456 444.325 237.816C443.599 237.176 442.767 236.856 441.829 236.856H426.853V258.296H437.861C439.951 258.296 441.893 257.72 443.685 256.568C445.477 255.373 446.97 253.923 448.165 252.216C449.402 250.467 450.234 248.675 450.661 246.84H451.301C451.301 248.632 451.343 250.808 451.429 253.368C451.514 255.928 451.706 257.805 452.005 259H413.541V258.296C415.631 258.296 416.997 258.104 417.637 257.72C418.319 257.336 418.661 256.675 418.661 255.736V217.464C418.661 216.525 418.319 215.864 417.637 215.48C416.997 215.096 415.631 214.904 413.541 214.904V214.2H451.045C450.746 215.309 450.554 216.845 450.469 218.808C450.383 220.771 450.341 222.648 450.341 224.44H449.701C449.018 221.709 447.546 219.448 445.285 217.656C443.066 215.821 440.378 214.904 437.221 214.904H426.853V236.152ZM175.39 335.32C171.635 335.32 168.158 334.424 164.958 332.632C161.8 330.797 159.262 328.173 157.342 324.76C155.422 321.347 154.462 317.272 154.462 312.536C154.462 305.88 156.424 300.44 160.35 296.216C164.275 291.992 169.651 289.88 176.478 289.88C178.654 289.88 181.15 289.987 183.966 290.2C186.782 290.413 189.363 290.648 191.71 290.904C191.283 292.397 191.006 294.211 190.878 296.344C190.75 298.435 190.686 300.739 190.686 303.256H189.918C189.278 300.909 188.403 298.797 187.294 296.92C186.184 295 184.798 293.485 183.134 292.376C181.512 291.224 179.528 290.648 177.182 290.648C173.171 290.648 169.886 292.312 167.326 295.64C164.808 298.925 163.55 302.936 163.55 307.672C163.55 312.536 164.254 316.589 165.662 319.832C167.07 323.032 168.99 325.443 171.422 327.064C173.854 328.643 176.563 329.432 179.55 329.432C183.987 329.432 187.784 327.875 190.942 324.76L191.518 325.144C191.262 325.827 190.771 326.723 190.046 327.832C189.32 328.941 188.318 330.072 187.038 331.224C185.758 332.376 184.158 333.357 182.238 334.168C180.318 334.936 178.035 335.32 175.39 335.32ZM216.104 334.744C218.536 334.744 220.755 333.912 222.76 332.248C224.808 330.541 226.43 328.045 227.624 324.76C228.862 321.475 229.48 317.443 229.48 312.664C229.48 307.843 228.862 303.811 227.624 300.568C226.43 297.283 224.808 294.808 222.76 293.144C220.755 291.48 218.536 290.648 216.104 290.648C213.758 290.648 211.582 291.437 209.576 293.016C207.614 294.595 206.014 297.005 204.776 300.248C203.582 303.491 202.984 307.629 202.984 312.664C202.984 317.656 203.582 321.795 204.776 325.08C206.014 328.323 207.614 330.755 209.576 332.376C211.582 333.955 213.758 334.744 216.104 334.744ZM216.232 335.384C209.662 335.384 204.307 333.272 200.168 329.048C196.072 324.824 194.024 319.363 194.024 312.664C194.024 305.965 196.051 300.504 200.104 296.28C204.2 292.056 209.576 289.944 216.232 289.944C222.846 289.944 228.2 292.056 232.296 296.28C236.392 300.504 238.44 305.965 238.44 312.664C238.44 319.363 236.392 324.824 232.296 329.048C228.2 333.272 222.846 335.384 216.232 335.384ZM294.732 290.136V290.904C292.641 290.904 291.276 291.075 290.636 291.416C289.996 291.757 289.676 292.419 289.676 293.4V331.736C289.676 332.675 289.996 333.336 290.636 333.72C291.276 334.061 292.641 334.232 294.732 334.232V334.936H276.236V334.232C278.369 334.232 279.756 334.04 280.396 333.656C281.036 333.272 281.356 332.611 281.356 331.672V295.064L265.356 335H264.524L248.524 294.872V331.736C248.524 332.675 248.844 333.336 249.484 333.72C250.124 334.104 251.489 334.296 253.58 334.296V335H242.636V334.296C244.726 334.296 246.092 334.104 246.732 333.72C247.372 333.336 247.692 332.675 247.692 331.736V293.464C247.692 292.525 247.372 291.864 246.732 291.48C246.092 291.096 244.726 290.904 242.636 290.904V290.2H255.5L268.94 323.864L282.444 290.136H294.732ZM350.482 290.136V290.904C348.391 290.904 347.026 291.075 346.386 291.416C345.746 291.757 345.426 292.419 345.426 293.4V331.736C345.426 332.675 345.746 333.336 346.386 333.72C347.026 334.061 348.391 334.232 350.482 334.232V334.936H331.986V334.232C334.119 334.232 335.506 334.04 336.146 333.656C336.786 333.272 337.106 332.611 337.106 331.672V295.064L321.106 335H320.274L304.274 294.872V331.736C304.274 332.675 304.594 333.336 305.234 333.72C305.874 334.104 307.239 334.296 309.33 334.296V335H298.386V334.296C300.476 334.296 301.842 334.104 302.482 333.72C303.122 333.336 303.442 332.675 303.442 331.736V293.464C303.442 292.525 303.122 291.864 302.482 291.48C301.842 291.096 300.476 290.904 298.386 290.904V290.2H311.25L324.69 323.864L338.194 290.136H350.482ZM380.248 320.472L371.48 299.224L363.224 320.472H380.248ZM399.768 335H380.504V334.424C381.741 334.424 382.786 334.232 383.64 333.848C384.536 333.421 384.984 332.803 384.984 331.992C384.984 331.779 384.962 331.608 384.92 331.48C384.877 331.309 384.813 331.117 384.728 330.904L380.568 321.24H362.904L359.192 330.904C359.149 331.075 359.106 331.245 359.064 331.416C359.021 331.544 359 331.715 359 331.928C359 332.739 359.426 333.357 360.28 333.784C361.176 334.168 362.242 334.36 363.48 334.36V335H352.408V334.36C354.029 334.36 355.352 333.997 356.376 333.272C357.4 332.547 358.082 331.693 358.424 330.712L374.04 290.2H377.112L392.92 328.152C393.773 330.243 394.733 331.8 395.8 332.824C396.866 333.848 398.189 334.36 399.768 334.36V335ZM438.562 322.264V293.464C438.562 292.525 438.221 291.864 437.538 291.48C436.898 291.096 435.533 290.904 433.442 290.904V290.2H444.45V290.904C442.36 290.904 440.973 291.096 440.29 291.48C439.65 291.821 439.33 292.483 439.33 293.464V335H437.41L407.522 294.808V331.736C407.522 332.675 407.842 333.336 408.482 333.72C409.165 334.104 410.552 334.296 412.642 334.296V335H401.634V334.296C403.725 334.296 405.09 334.104 405.73 333.72C406.413 333.336 406.754 332.675 406.754 331.736V293.784C406.029 292.632 405.325 291.864 404.642 291.48C404.002 291.096 403 290.904 401.634 290.904V290.2H414.37L438.562 322.264ZM466.897 334.296C469.755 334.296 472.294 333.485 474.513 331.864C476.731 330.243 478.481 327.832 479.761 324.632C481.041 321.389 481.681 317.379 481.681 312.6C481.681 307.779 481.041 303.768 479.761 300.568C478.481 297.368 476.731 294.957 474.513 293.336C472.294 291.715 469.755 290.904 466.897 290.904H461.137V334.296H466.897ZM466.897 335H447.697V334.296C449.787 334.296 451.153 334.104 451.793 333.72C452.475 333.336 452.817 332.675 452.817 331.736V293.464C452.817 292.525 452.475 291.864 451.793 291.48C451.153 291.096 449.787 290.904 447.697 290.904V290.2H466.897C471.377 290.2 475.43 290.989 479.057 292.568C482.726 294.104 485.627 296.536 487.761 299.864C489.937 303.149 491.025 307.395 491.025 312.6C491.025 317.805 489.937 322.072 487.761 325.4C485.627 328.685 482.726 331.117 479.057 332.696C475.43 334.232 471.377 335 466.897 335ZM508.446 312.152H523.422C524.361 312.152 525.193 311.832 525.918 311.192C526.644 310.509 527.006 309.123 527.006 307.032H527.71V317.912H527.006C527.006 315.821 526.644 314.456 525.918 313.816C525.193 313.176 524.361 312.856 523.422 312.856H508.446V334.296H519.454C521.545 334.296 523.486 333.72 525.278 332.568C527.07 331.373 528.564 329.923 529.758 328.216C530.996 326.467 531.828 324.675 532.254 322.84H532.894C532.894 324.632 532.937 326.808 533.022 329.368C533.108 331.928 533.3 333.805 533.598 335H495.134V334.296C497.225 334.296 498.59 334.104 499.23 333.72C499.913 333.336 500.254 332.675 500.254 331.736V293.464C500.254 292.525 499.913 291.864 499.23 291.48C498.59 291.096 497.225 290.904 495.134 290.904V290.2H532.638C532.34 291.309 532.148 292.845 532.062 294.808C531.977 296.771 531.934 298.648 531.934 300.44H531.294C530.612 297.709 529.14 295.448 526.878 293.656C524.66 291.821 521.972 290.904 518.814 290.904H508.446V312.152Z" fill="white"/>
<defs>
<filter id="filter0_f_780_267" x="0.5" y="0.5" width="685" height="473" filterUnits="userSpaceOnUse" color-interpolation-filters="sRGB">
<feFlood flood-opacity="0" result="BackgroundImageFix"/>
<feBlend mode="normal" in="SourceGraphic" in2="BackgroundImageFix" result="shape"/>
<feGaussianBlur stdDeviation="6.25" result="effect1_foregroundBlur_780_267"/>
</filter>
</defs>
</svg>
