<svg width="120" height="120" viewBox="0 0 120 120" fill="none" xmlns="http://www.w3.org/2000/svg">
<circle cx="59.75" cy="59.75" r="59.75" fill="white"/>
<path fill-rule="evenodd" clip-rule="evenodd" d="M45.3331 38.1508C45.3331 34.2821 46.8699 30.5719 49.6055 27.8364C52.341 25.1008 56.0513 23.564 59.9199 23.564C63.7886 23.564 67.4988 25.1008 70.2344 27.8364C72.97 30.5719 74.5068 34.2821 74.5068 38.1508C74.5068 42.0195 72.97 45.7297 70.2344 48.4653C67.4988 51.2008 63.7886 52.7377 59.9199 52.7377C56.0513 52.7377 52.341 51.2008 49.6055 48.4653C46.8699 45.7297 45.3331 42.0195 45.3331 38.1508ZM74.5068 49.8203C74.5068 46.7253 75.7362 43.7572 77.9247 41.5687C80.1131 39.3803 83.0813 38.1508 86.1763 38.1508C89.2712 38.1508 92.2394 39.3803 94.4278 41.5687C96.6163 43.7572 97.8457 46.7253 97.8457 49.8203C97.8457 52.9152 96.6163 55.8834 94.4278 58.0719C92.2394 60.2603 89.2712 61.4898 86.1763 61.4898C83.0813 61.4898 80.1131 60.2603 77.9247 58.0719C75.7362 55.8834 74.5068 52.9152 74.5068 49.8203ZM21.9941 49.8203C21.9941 46.7253 23.2236 43.7572 25.4121 41.5687C27.6005 39.3803 30.5687 38.1508 33.6636 38.1508C36.7586 38.1508 39.7267 39.3803 41.9152 41.5687C44.1036 43.7572 45.3331 46.7253 45.3331 49.8203C45.3331 52.9152 44.1036 55.8834 41.9152 58.0719C39.7267 60.2603 36.7586 61.4898 33.6636 61.4898C30.5687 61.4898 27.6005 60.2603 25.4121 58.0719C23.2236 55.8834 21.9941 52.9152 21.9941 49.8203ZM37.7868 70.7009C40.1603 66.9828 43.4322 63.9226 47.3006 61.8029C51.1689 59.6831 55.5089 58.5721 59.9199 58.5724C63.6146 58.569 67.2683 59.346 70.6418 60.8525C74.0154 62.3589 77.0327 64.5609 79.4964 67.3143C81.96 70.0676 83.8143 73.3102 84.938 76.8299C86.0616 80.3495 86.4292 84.0668 86.0168 87.7383C85.9664 88.1944 85.809 88.6322 85.5576 89.0161C85.3062 89.4 84.9677 89.7192 84.5698 89.9477C77.0682 94.2512 68.5683 96.51 59.9199 96.4982C51.2716 96.51 42.7717 94.2512 35.2701 89.9477C34.8721 89.7192 34.5337 89.4 34.2823 89.0161C34.0308 88.6322 33.8735 88.1944 33.8231 87.7383C33.1739 81.774 34.5716 75.7661 37.7868 70.7009Z" fill="#009CD4"/>
<path d="M33.0095 67.3398L32.8695 67.5538C29.1324 73.4345 27.3981 80.3664 27.9255 87.3141C25.5885 86.9599 23.2898 86.3869 21.06 85.6026L20.6127 85.447C20.2127 85.3066 19.8625 85.0526 19.6047 84.7161C19.347 84.3797 19.1931 83.9753 19.1617 83.5526L19.1228 83.082C19.0917 82.6904 19.0762 82.3001 19.0762 81.9111C19.0764 78.1558 20.525 74.5451 23.1204 71.8309C25.7157 69.1167 29.2579 67.5081 33.0095 67.3398ZM91.917 87.3141C92.4491 80.2789 90.662 73.2632 86.8291 67.3398C88.7863 67.4276 90.7058 67.9087 92.473 68.7544C94.2402 69.6002 95.8189 70.7932 97.1149 72.2624C98.411 73.7316 99.3978 75.4469 100.016 77.3058C100.635 79.1647 100.873 81.1291 100.716 83.082L100.677 83.5526C100.645 83.9746 100.491 84.3781 100.233 84.7139C99.9752 85.0496 99.6254 85.303 99.226 85.4431L98.7787 85.5987C96.5719 86.3818 94.2846 86.9536 91.917 87.3141Z" fill="#009CD4"/>
</svg>
