<svg width="82" height="86" viewBox="0 0 82 86" fill="none" xmlns="http://www.w3.org/2000/svg">
<path d="M79.0578 80.3654C76.4749 80.3654 73.3964 77.9764 72.0934 75.8489L54.4456 42.405C64.023 42.5616 72.5273 37.1703 74.5815 27.5268C77.377 14.4099 72.0116 1.09464 57.3848 0H6.22409V6.02626H14.5474C12.065 12.3197 11.5536 19.251 15.0056 25.3002C17.4793 29.6342 21.99 32.5734 25.3142 36.2308C34.5741 46.4187 22.7054 50.497 17.1992 57.2573C11.7145 63.9904 11.7188 72.6426 15.1205 80.3654H6.22266V85.9621H57.7439V80.3654H50.8557C54.6654 72.6053 54.1698 63.2908 48.3461 56.6842C44.7806 52.6389 37.2503 48.6654 37.3566 42.688C37.4529 37.2895 45.8408 32.1151 49.0644 28.1288C50.7652 26.0242 51.926 23.8034 52.6241 21.5049C52.0395 21.4058 51.3011 21.3009 50.4607 21.196C50.1533 22.1513 49.7539 23.0908 49.2483 24.0073C45.5851 30.6441 34.7651 35.2597 35.2061 43.5614C35.5466 49.9899 42.6301 53.5712 46.4815 57.832C51.5496 63.4402 52.4173 71.6399 49.3028 78.4534C49.0529 78.9993 48.6435 80.1614 48.066 80.2304L17.5842 80.1988C13.9512 73.2934 13.8032 64.5305 19.0667 58.4066C22.9252 53.9174 30.4512 50.2327 30.8894 43.6807C31.4353 35.5226 20.9629 30.7705 17.159 24.5834C13.5878 18.7755 14.3376 11.9505 16.9852 5.95156L48.9681 5.90702C50.0168 8.29454 50.7853 10.8315 51.1028 13.3899H53.3093C53.0421 10.955 52.3914 8.48704 51.4304 6.02626H57.2426C58.9937 6.02626 61.8452 7.29472 63.2458 8.34626C69.3195 12.9116 69.6671 24.8621 65.6966 30.8409C60.6658 38.4143 51.2465 35.7783 43.538 36.3788L65.5788 78.7752C67.3558 81.9485 71.7803 85.9636 75.6129 85.9636H81.9998V80.3668H79.0578V80.3654Z" fill="white"/>
<path d="M32.8615 49.8075L33.3514 49.865C33.9964 50.2514 33.6588 53.6574 32.6992 52.5225C32.4866 52.2711 32.5555 49.9081 32.8601 49.8075H32.8615Z" fill="white"/>
<path d="M32.6323 54.8914L32.8621 54.6888L33.3563 54.7406C33.7657 55.2232 33.8534 57.5504 33.0115 57.3737C32.9124 57.3536 32.6309 57.0821 32.6309 57.0433V54.89L32.6323 54.8914Z" fill="white"/>
<path d="M33.4571 47.466L32.654 47.4746C32.588 47.0638 32.338 45.6818 32.8667 45.508C33.7286 45.225 33.7975 46.9474 33.4556 47.466H33.4571Z" fill="white"/>
<path d="M32.8623 58.4194L33.4714 58.6435C33.4973 59.3029 33.7516 60.4148 32.7647 60.0671L32.6541 59.8919C32.6483 59.5385 32.4774 58.5458 32.8623 58.4194Z" fill="white"/>
<path d="M48.8757 76.1607C48.8154 76.3188 48.7507 76.4251 48.6832 76.4552C47.2309 77.1218 44.806 75.1279 43.4959 74.513C40.6228 73.1656 36.816 72.4487 35.2675 68.5974C35.0132 67.9639 35.0505 66.6825 34.4084 66.5963C33.7878 66.513 30.0758 68.4911 29.2972 68.991C26.2791 70.9318 21.3805 76.9508 18.4686 77.2353C17.7058 77.31 17.3036 76.9609 17.0738 76.3791C17.0134 76.4136 16.9473 76.4394 16.877 76.4567C16.9588 77.6059 17.2102 78.4865 17.7963 79.8038H48.0684C48.5252 78.6675 48.8714 77.4651 49.1271 76.2613C49.0337 76.2426 48.9504 76.2067 48.8743 76.1593L48.8757 76.1607ZM33.1012 69.172C33.196 68.741 34.5032 67.3361 34.69 67.5573C34.8221 69.1548 35.7056 70.2164 36.5445 71.2377L40.0296 73.7043C38.3775 73.8048 32.3743 72.499 33.1026 69.172H33.1012Z" fill="white"/>
<path d="M12.1344 13.7921H0.453941L0 14.5937L2.62885 21.2463C3.46635 20.9317 7.707 20.6243 12.597 20.3901C11.9821 17.9293 12.0669 14.9801 12.1358 13.7921H12.1344Z" fill="white"/>
<path d="M55.4558 13.7921H15.1811C15.0633 15.0907 14.8938 18.1649 15.6595 20.2551C21.9918 19.9994 28.4619 19.8758 29.6111 20.0094C29.4344 22.0249 29.8625 24.411 29.5795 26.3718C29.4402 27.3357 28.6084 28.3772 28.607 28.8226C28.6041 29.367 29.4459 30.0034 29.5924 30.9098C29.762 31.9614 29.8309 33.1638 29.8223 34.425C29.8223 34.425 29.8223 34.425 29.8237 34.425C29.8912 36.0684 31.266 36.8743 32.1624 37.9575C32.6853 38.5881 32.9841 39.0665 33.0703 39.9413C33.0803 40.0419 33.0301 40.3594 33.1493 40.3809C33.2901 40.4068 33.2412 40.0606 33.2499 39.9729C33.4969 37.584 35.9534 37.0108 36.4591 34.8517C36.472 34.7942 36.5122 34.471 36.5093 34.3891C36.5093 34.3891 36.5108 34.3891 36.5122 34.3891C36.505 33.1408 36.574 31.9528 36.7421 30.9098C36.8886 30.0034 37.729 29.367 37.7275 28.8226C37.7261 28.3772 36.8929 27.3343 36.755 26.3718C36.472 24.411 36.9001 22.0249 36.7234 20.0094C38.9759 19.748 51.218 20.472 53.2809 21.2477L55.9097 14.5951L55.4558 13.7935V13.7921Z" fill="white"/>
</svg>
