<svg width="60" height="60" viewBox="0 0 60 60" fill="none" xmlns="http://www.w3.org/2000/svg">
<path d="M17.1583 0H42.0083C51.475 0 59.1667 7.69167 59.1667 17.1583V42.0083C59.1667 46.559 57.3589 50.9233 54.1411 54.1411C50.9233 57.3589 46.559 59.1667 42.0083 59.1667H17.1583C7.69167 59.1667 0 51.475 0 42.0083V17.1583C0 12.6077 1.80775 8.24337 5.02556 5.02556C8.24337 1.80775 12.6077 0 17.1583 0ZM16.5667 5.91667C13.7421 5.91667 11.0332 7.03872 9.03598 9.03598C7.03872 11.0332 5.91667 13.7421 5.91667 16.5667V42.6C5.91667 48.4871 10.6796 53.25 16.5667 53.25H42.6C45.4246 53.25 48.1334 52.128 50.1307 50.1307C52.128 48.1334 53.25 45.4246 53.25 42.6V16.5667C53.25 10.6796 48.4871 5.91667 42.6 5.91667H16.5667ZM45.1146 10.3542C46.0953 10.3542 47.0359 10.7438 47.7294 11.4373C48.4229 12.1308 48.8125 13.0713 48.8125 14.0521C48.8125 15.0328 48.4229 15.9734 47.7294 16.6669C47.0359 17.3604 46.0953 17.75 45.1146 17.75C44.1338 17.75 43.1933 17.3604 42.4998 16.6669C41.8063 15.9734 41.4167 15.0328 41.4167 14.0521C41.4167 13.0713 41.8063 12.1308 42.4998 11.4373C43.1933 10.7438 44.1338 10.3542 45.1146 10.3542ZM29.5833 14.7917C33.5063 14.7917 37.2686 16.3501 40.0426 19.124C42.8166 21.898 44.375 25.6603 44.375 29.5833C44.375 33.5063 42.8166 37.2686 40.0426 40.0426C37.2686 42.8166 33.5063 44.375 29.5833 44.375C25.6603 44.375 21.898 42.8166 19.124 40.0426C16.3501 37.2686 14.7917 33.5063 14.7917 29.5833C14.7917 25.6603 16.3501 21.898 19.124 19.124C21.898 16.3501 25.6603 14.7917 29.5833 14.7917ZM29.5833 20.7083C27.2295 20.7083 24.9721 21.6434 23.3078 23.3078C21.6434 24.9721 20.7083 27.2295 20.7083 29.5833C20.7083 31.9371 21.6434 34.1945 23.3078 35.8589C24.9721 37.5233 27.2295 38.4583 29.5833 38.4583C31.9371 38.4583 34.1945 37.5233 35.8589 35.8589C37.5233 34.1945 38.4583 31.9371 38.4583 29.5833C38.4583 27.2295 37.5233 24.9721 35.8589 23.3078C34.1945 21.6434 31.9371 20.7083 29.5833 20.7083Z" fill="white"/>
</svg>
