<svg width="120" height="120" viewBox="0 0 120 120" fill="none" xmlns="http://www.w3.org/2000/svg">
<circle cx="59.75" cy="59.75" r="59.75" fill="white"/>
<path d="M59.5 19C37.1315 19 19 37.1315 19 59.5C19 81.8685 37.1315 100 59.5 100C81.8685 100 100 81.8685 100 59.5C100 37.1315 81.8685 19 59.5 19ZM43.4694 41.2633L63.9141 55.0878C65.2637 56.0598 66.1763 57.524 66.4547 59.1637C66.733 60.8034 66.3547 62.4868 65.4015 63.8496C64.4483 65.2125 62.9969 66.1454 61.3612 66.4464C59.7255 66.7474 58.0371 66.3924 56.6611 65.4582C56.0566 65.0319 55.5297 64.505 55.1034 63.9005L41.2789 43.4558C41.0661 43.1509 40.9674 42.7809 41 42.4106C41.0327 42.0402 41.1947 41.6932 41.4576 41.4303C41.7205 41.1674 42.0675 41.0054 42.4378 40.9728C42.8082 40.9401 43.1782 41.0388 43.483 41.2516L43.4694 41.2633ZM59.5 93.7692C40.613 93.7692 25.2308 78.3968 25.2308 59.5C25.2147 54.8909 26.1363 50.3268 27.9395 46.0851C29.7427 41.8434 32.3898 38.0127 35.7199 34.8262C35.9789 34.568 36.2866 34.3639 36.6253 34.2259C36.9639 34.0879 37.3267 34.0187 37.6923 34.0223C38.058 34.0259 38.4193 34.1023 38.7551 34.247C39.091 34.3917 39.3947 34.6018 39.6485 34.865C39.9023 35.1283 40.1012 35.4394 40.2335 35.7803C40.3659 36.1212 40.429 36.4851 40.4193 36.8506C40.4095 37.2162 40.3272 37.5761 40.1769 37.9095C40.0266 38.2429 39.8115 38.543 39.544 38.7924C36.7496 41.4671 34.5283 44.682 33.015 48.2418C31.5017 51.8016 30.7281 55.6319 30.7411 59.5C30.7411 75.3573 43.6427 88.2589 59.5 88.2589C75.3573 88.2589 88.2589 75.3573 88.2589 59.5C88.2589 44.5715 76.8254 32.2638 62.2552 30.8774V41.5865C62.2552 42.3173 61.9649 43.018 61.4482 43.5347C60.9315 44.0514 60.2307 44.3417 59.5 44.3417C58.7693 44.3417 58.0685 44.0514 57.5518 43.5347C57.0351 43.018 56.7448 42.3173 56.7448 41.5865V27.9859C56.7448 27.2552 57.0351 26.5544 57.5518 26.0377C58.0685 25.521 58.7693 25.2308 59.5 25.2308C78.3968 25.2308 93.7692 40.613 93.7692 59.5C93.7692 78.387 78.3968 93.7692 59.5 93.7692Z" fill="#009CD4"/>
</svg>
