<svg width="66" height="68" viewBox="0 0 66 68" fill="none" xmlns="http://www.w3.org/2000/svg">
<path d="M49.9371 46.0274H59.3846L50.9358 52.1241L52.3897 62.4685L44.1299 56.2283L33.7413 62.3446L38.4921 52.0996L32.7598 45.9047H42.2686L47.9948 36.1713L48.3408 35.8438L49.9371 46.0274Z" fill="#FDFDFD"/>
<path d="M0 42.9598L8.90888 0.5H32.0908C41.1666 0.571163 45.429 6.3096 43.5199 15.1326C42.477 19.952 38.7299 22.7016 33.9853 23.39C35.4527 23.8464 36.5655 24.3899 37.3974 25.7457C39.3004 28.8437 37.9508 35.9956 38.282 39.8298C38.3348 40.4335 39.136 43.6776 39.5262 43.9217C39.7028 44.0322 41.1813 44.0432 41.2746 43.5622L49.3822 29.8314L51.6521 43.9414L65.762 44.0653L53.1404 53.1079L55.0875 67.1307L43.9837 58.7015L29.2002 67.5L35.9508 52.4772L35.8306 52.2184L28.0309 44.069C25.2948 39.4151 31.0847 28.2671 22.8642 27.5186C20.1943 27.2757 17.1711 27.6217 14.4682 27.5567L11.1628 42.9622H0V42.9598ZM16.3184 19.5251H26.8088C29.0149 19.5251 31.6823 18.1092 32.4503 15.9645C33.7656 12.2885 31.8185 9.60028 28.0419 9.33648C24.9242 9.11809 21.5501 9.51071 18.4055 9.34262L16.3184 19.5251ZM49.9368 46.0272L48.3406 35.8435L47.9946 36.1711L42.2684 45.9045H32.7595L38.4918 52.0993L33.7411 62.3444L44.1297 56.228L52.3895 62.4683L50.9356 52.1227L59.3843 46.0272H49.9368Z" fill="#060501"/>
</svg>
