<svg width="120" height="120" viewBox="0 0 120 120" fill="none" xmlns="http://www.w3.org/2000/svg">
<circle cx="59.75" cy="59.75" r="59.75" fill="white"/>
<path d="M67.7921 57.2931C67.7914 59.3372 66.9787 61.2974 65.5328 62.7424C64.0869 64.1874 62.1261 64.9988 60.082 64.9981C58.0378 64.9974 56.0776 64.1847 54.6326 62.7388C53.1877 61.2928 52.3763 59.3321 52.377 57.2879C52.3776 55.2438 53.1903 53.2836 54.6363 51.8386C56.0822 50.3936 58.0429 49.5822 60.0871 49.5829C62.1313 49.5836 64.0915 50.3963 65.5364 51.8422C66.9814 53.2882 67.7928 55.2489 67.7921 57.2931ZM92.2941 39.3147H79.2469C76.8901 39.3147 74.6298 40.2509 72.9632 41.9175C71.2967 43.584 70.3605 45.8443 70.3605 48.2011V64.9981C70.3605 66.3604 70.9016 67.6669 71.865 68.6303C72.8283 69.5936 74.1348 70.1348 75.4971 70.1348V100.955H96.0438V70.1348C97.4062 70.1348 98.7127 69.5936 99.676 68.6303C100.639 67.6669 101.181 66.3604 101.181 64.9981V48.2011C101.181 45.8443 100.244 43.584 98.5777 41.9175C96.9112 40.2509 94.6509 39.3147 92.2941 39.3147Z" fill="#009CD4"/>
<path d="M96.0502 29.0411C96.0811 30.4092 95.8384 31.7697 95.3363 33.0427C94.8342 34.3157 94.0829 35.4756 93.1263 36.4542C92.1698 37.4328 91.0274 38.2105 89.7662 38.7416C88.505 39.2726 87.1504 39.5464 85.782 39.5467C84.4136 39.5471 83.0588 39.274 81.7974 38.7436C80.5359 38.2131 79.3931 37.436 78.4361 36.4579C77.4791 35.4797 76.7272 34.3202 76.2244 33.0475C75.7217 31.7747 75.4783 30.4143 75.5086 29.0462C75.5679 26.362 76.6758 23.8077 78.5949 21.93C80.514 20.0524 83.092 19.0007 85.7769 19C88.4617 18.9993 91.0402 20.0498 92.9603 21.9264C94.8804 23.8031 95.9895 26.3569 96.0502 29.0411ZM40.9336 44.4511H27.8865C26.7191 44.4515 25.5633 44.6817 24.485 45.1287C23.4066 45.5758 22.4269 46.2308 21.6017 47.0565C20.7765 47.8821 20.1221 48.8622 19.6757 49.9408C19.2293 51.0194 18.9997 52.1754 19 53.3427C19.0003 54.51 19.2306 55.6659 19.6776 56.7442C20.1246 57.8225 20.7797 58.8023 21.6054 59.6274C22.431 60.4526 23.4111 61.1071 24.4897 61.5535C25.5683 61.9999 26.7243 62.2295 27.8916 62.2292C30.2491 62.2285 32.5098 61.2913 34.1763 59.6238C35.8429 57.9563 36.7787 55.6951 36.778 53.3376C36.7774 50.9801 35.8402 48.7194 34.1727 47.0528C32.5052 45.3863 30.244 44.4504 27.8865 44.4511C25.5296 44.4511 23.2683 45.3899 21.6017 47.0565C19.9352 48.723 19 50.9859 19 53.3427L19 64.9978C19 66.3602 19.5412 67.6667 20.5045 68.63C21.4678 69.5933 22.7743 70.1345 24.1367 70.1345L19 85.5445H24.1367V100.955H44.6834V85.5445H49.8201L44.6834 70.1345C46.0457 70.1345 47.3523 69.5933 48.3156 68.63C49.2789 67.6667 49.8201 66.3602 49.8201 64.9978V53.3376C49.8201 52.1706 49.5902 51.015 49.1436 49.9369C48.697 48.8587 48.0425 47.8791 47.2173 47.0539C46.3921 46.2287 45.4125 45.5742 44.3343 45.1276C43.2562 44.681 42.1006 44.4511 40.9336 44.4511Z" fill="#009CD4"/>
<path d="M44.6808 34.1778C44.7117 35.5459 44.469 36.9064 43.967 38.1794C43.4649 39.4524 42.7135 40.6123 41.757 41.5909C40.8005 42.5696 39.6581 43.3472 38.3969 43.8783C37.1357 44.4093 35.7811 44.6831 34.4126 44.6834C33.0442 44.6838 31.6895 44.4107 30.428 43.8803C29.1665 43.3499 28.0238 42.5728 27.0668 41.5946C26.1097 40.6164 25.3578 39.457 24.8551 38.1842C24.3524 36.9114 24.109 35.5511 24.1392 34.183C24.1986 31.4987 25.3064 28.9444 27.2255 27.0668C29.1447 25.1891 31.7226 24.1374 34.4075 24.1367C37.0924 24.136 39.6709 25.1865 41.5909 27.0632C43.511 28.9398 44.6201 31.4936 44.6808 34.1778ZM54.9542 85.5446V100.955H65.2275V85.5446C66.5898 85.5446 67.8964 85.0034 68.8597 84.0401C69.823 83.0768 70.3642 81.7702 70.3642 80.4079V72.4974C70.3642 70.5084 69.5741 68.6009 68.1676 67.1944C66.7612 65.788 64.8536 64.9979 62.8646 64.9979H57.317C55.328 64.9979 53.4205 65.788 52.014 67.1944C50.6076 68.6009 49.8175 70.5084 49.8175 72.4974V80.4079C49.8175 81.7702 50.3587 83.0768 51.322 84.0401C52.2853 85.0034 53.5918 85.5446 54.9542 85.5446Z" fill="#009CD4"/>
</svg>
