<svg width="37" height="37" viewBox="0 0 37 37" fill="none" xmlns="http://www.w3.org/2000/svg">
<path d="M11.0969 29.6C9.06251 29.6 7.41646 31.265 7.41646 33.3C7.41646 35.335 9.06251 37 11.0969 37C13.1314 37 14.7959 35.335 14.7959 33.3C14.7959 31.265 13.1314 29.6 11.0969 29.6ZM1.84949 3.70001H3.69898L10.3572 17.7415L7.86034 22.2555C6.51021 24.7345 8.28572 27.75 11.0969 27.75H31.4413C32.4586 27.75 33.2908 26.9175 33.2908 25.9C33.2908 24.8825 32.4586 24.05 31.4413 24.05H11.0969L13.1314 20.35H26.9101C28.2972 20.35 29.5179 19.5915 30.1467 18.4445L36.7679 6.43801C36.9237 6.1576 37.0037 5.84133 36.9999 5.52051C36.996 5.19969 36.9085 4.88544 36.7459 4.60884C36.5834 4.33225 36.3515 4.10291 36.0731 3.9435C35.7947 3.7841 35.4796 3.70017 35.1588 3.70001H7.78636L6.5472 1.05451C6.3991 0.738309 6.16373 0.471044 5.86881 0.284214C5.5739 0.0973835 5.23174 -0.00122439 4.88266 1.14759e-05H1.84949C0.832271 1.14759e-05 0 0.832511 0 1.85001C0 2.86751 0.832271 3.70001 1.84949 3.70001ZM29.5919 29.6C27.5574 29.6 25.9114 31.265 25.9114 33.3C25.9114 35.335 27.5574 37 29.5919 37C31.6263 37 33.2908 35.335 33.2908 33.3C33.2908 31.265 31.6263 29.6 29.5919 29.6Z" fill="white"/>
</svg>
