<svg width="38" height="40" viewBox="0 0 38 40" fill="none" xmlns="http://www.w3.org/2000/svg">
<path d="M19 20.4496C28.0786 20.4496 37.3944 26.2732 37.9978 37.9726C38.021 38.4236 37.8618 38.8652 37.5552 39.2005C37.2486 39.5358 36.8197 39.7373 36.3626 39.7608C31.5723 40.0017 9.38711 40.1494 1.63968 39.7608C1.18219 39.7379 0.752673 39.5366 0.445594 39.2013C0.138515 38.8659 -0.0209713 38.424 0.00221658 37.9726C0.605613 26.2754 9.92141 20.4496 19 20.4496ZM19 0C16.7095 0 14.5128 0.89771 12.8931 2.49564C11.2735 4.09358 10.3636 6.26084 10.3636 8.52066C10.3636 10.7805 11.2735 12.9477 12.8931 14.5457C14.5128 16.1436 16.7095 17.0413 19 17.0413C21.2905 17.0413 23.4872 16.1436 25.1069 14.5457C26.7265 12.9477 27.6364 10.7805 27.6364 8.52066C27.6364 6.26084 26.7265 4.09358 25.1069 2.49564C23.4872 0.89771 21.2905 0 19 0Z" fill="white"/>
</svg>
