<svg width="79" height="67" viewBox="0 0 79 67" fill="none" xmlns="http://www.w3.org/2000/svg">
<path d="M3.46983 66.8864C3.38189 65.6151 3.94203 64.4489 3.986 63.1891C4.33011 53.3818 4.93041 38.4109 3.95732 28.963C3.87894 28.2041 3.50042 25.8048 3.00145 25.4569L0 24.9923L7.38318 8.68508L29.3779 8.25685L39.8409 0L49.933 8.27406L71.9449 8.68508L78.8406 24.4934C79.0394 25.952 77.1678 24.6731 76.0934 25.7188C75.5887 26.2101 75.4358 27.2539 75.3555 27.9555C74.2524 37.6653 75.0209 53.984 75.3383 64.1851C75.3689 65.1391 75.7225 65.9688 75.8602 66.8864H60.2412L59.4975 66.1427V26.4758C59.4975 26.3248 60.1781 25.7704 59.9926 25.237H53.0511L54.0433 42.5862L48.0939 42.5919V28.9573C48.0939 28.2308 49.1951 26.2713 49.0861 25.2389H41.6494C42.3854 26.3497 42.5498 27.1163 42.6645 28.4373C43.4694 37.738 43.4006 54.8328 42.6645 64.1851C42.59 65.1391 42.374 65.9802 42.1445 66.8883H33.7156C35.0711 65.38 35.9294 65.4755 36.2028 63.1776C36.5469 60.3081 36.6005 51.0743 36.1646 48.3214C35.8549 46.36 34.335 46.0025 33.7462 44.3928C34.207 43.5764 35.203 43.1081 35.635 42.2822C36.4647 40.6916 36.4628 31.649 36.2047 29.441C35.9983 27.6822 34.2395 25.237 32.4749 25.237H19.3354C19.9893 26.4605 20.2359 27.5483 20.3468 28.9363C21.0656 37.9482 21.1 54.2019 20.3468 63.1872C20.2359 64.5025 20.1078 65.9344 19.0888 66.8864H3.46983Z" fill="black"/>
<path d="M53.5499 47.0537V65.6474C53.5499 65.7717 54.1349 66.0431 53.8367 66.3968C53.2938 67.1883 48.8413 67.2953 48.0957 66.1425V47.0537H53.5499Z" fill="black"/>
<path d="M25.7817 62.9193V47.0518L29.7505 47.2965C30.1749 47.5488 30.4999 47.9101 30.6395 48.39C30.9435 49.4262 30.9454 60.5353 30.6395 61.5772C30.0794 63.4871 27.3322 62.8524 25.7817 62.9174V62.9193Z" fill="black"/>
<path d="M25.7817 42.5902V29.6992L30.5248 30.1638V42.1256L25.7817 42.5902Z" fill="black"/>
</svg>
