<svg width="69" height="67" viewBox="0 0 69 67" fill="none" xmlns="http://www.w3.org/2000/svg">
<path d="M63.3903 0.00150136V56.5612C63.3903 58.1646 67.5645 59.7275 68.9939 59.1876V66.8925H50.0832V63.0423C47.8438 63.7578 45.8685 65.1512 43.6156 65.8531C38.6524 67.4025 31.4004 67.7445 27.0252 64.5602L26.9712 59.1861C25.7383 59.5085 21.7156 58.8006 21.7156 57.2617V26.9682C20.4031 28.0436 19.2992 29.797 18.5043 31.2864C13.1646 41.2937 14.2191 54.2739 22.932 61.9984C24.6569 63.5268 27.5787 64.3082 26.9682 66.8925H0.00150022V59.1876C3.16629 59.2775 5.9921 57.8976 6.32358 54.4779C6.95804 47.9038 5.88111 40.2198 6.22459 33.5288C5.71312 30.9954 2.27685 30.0085 0 30.1225L0.0404979 23.154C7.11403 22.149 14.1816 20.9836 21.3646 21.3661V26.6187L25.5973 22.971C30.49 19.3832 35.3032 18.2088 41.3462 19.4192C43.9066 19.9322 45.9524 21.1756 48.3313 22.065V14.1846C48.3313 12.5647 43.1986 10.6658 41.6777 11.2073V4.20272C45.9434 4.05273 51.8051 3.89674 55.6508 1.89137C56.3857 1.5074 57.8137 0 57.9621 0H63.3903V0.00150136ZM48.2548 31.9434C33.8467 19.7927 28.4201 40.7043 32.1234 51.7556C34.8577 59.9165 43.0291 59.8505 48.2593 54.0369L48.2563 31.9434H48.2548Z" fill="black"/>
</svg>
