<svg width="87" height="67" viewBox="0 0 87 67" fill="none" xmlns="http://www.w3.org/2000/svg">
<path d="M49.0854 44.5949C57.4117 41.2562 67.3602 40.8256 76.0741 42.8989C83.4611 44.6544 92.417 48.8114 81.3406 54.6644L49.0875 66.1162V58.1303L73.2891 49.2769L73.9597 48.1428C74.0233 47.5112 73.6234 47.38 73.1845 47.1215C68.3097 44.232 54.4791 51.5903 49.0875 52.8064V44.597L49.0854 44.5949Z" fill="black"/>
<path d="M29.5618 38.1592V45.9236C25.1628 48.3579 19.5066 49.2971 15.0584 51.3869C13.4321 52.1498 11.3218 53.3762 14.0289 54.3606C19.2646 56.2617 24.6316 52.9845 29.5638 51.471V59.0139C22.8782 59.7481 16.3217 59.8342 9.76117 58.1833C1.02061 55.9828 -5.20976 51.8258 6.1907 46.5121C13.467 43.1221 22.0373 41.0857 29.5618 38.1592Z" fill="black"/>
<path d="M52.1902 37.7165V14.4213C52.1902 14.288 51.2612 12.2167 51.0684 11.9931C49.4339 10.1228 46.4234 11.341 46.4234 13.5333V67L32.2256 62.3406V0C40.9805 2.81371 56.175 4.70866 62.8586 11.2979C71.6955 20.0077 69.6242 45.5526 52.1923 37.7144L52.1902 37.7165Z" fill="black"/>
</svg>
