<svg width="47" height="68" viewBox="0 0 47 68" fill="none" xmlns="http://www.w3.org/2000/svg">
<path d="M31.8064 8.2682C31.7589 8.07964 31.8836 8.05292 31.9667 7.94454C32.1226 7.73965 33.1664 6.70035 33.343 6.62612C33.8211 6.4242 34.4878 6.51477 34.9629 6.41381C35.386 6.32324 35.7691 5.83923 36.1135 5.73233C36.8469 5.50665 37.2597 5.78875 37.8254 4.96474C38.0451 4.64404 38.1995 3.89278 38.3005 3.76955C38.4103 3.63296 39.0992 3.62999 39.3828 3.50379C39.6515 3.38353 40.722 2.45262 40.8096 2.4541C41.0531 2.68572 40.9848 3.05392 41.3011 3.25436C41.794 3.56912 42.8407 3.44885 43.3396 3.69532C43.6187 3.83339 43.8963 4.48518 44.1517 4.71679C44.407 4.94841 44.9386 4.9974 44.9326 5.5022C44.9297 5.71451 44.6164 6.45241 44.6832 6.55188C44.8124 6.74341 45.3973 6.68254 45.5547 6.86961C45.7373 7.08638 45.8739 8.10934 45.7967 8.40628C45.7492 8.58741 45.4077 8.91553 45.4226 9.08033C45.436 9.23474 46.0046 9.59107 46.0922 9.78111C46.3773 10.3943 45.3469 11.3401 45.2029 11.9072C45.1182 12.2383 45.2608 12.9153 45.1539 13.0979C45.0707 13.2405 44.3996 13.5404 44.2556 13.9769C44.0938 14.4639 43.6647 15.4957 43.583 15.8921C43.5103 16.2514 43.6721 16.5306 43.6202 16.7859C43.4969 17.3828 42.667 18.0138 42.5883 18.6656C42.5096 19.3174 42.7872 19.7969 42.7947 20.2943C42.7947 20.3448 42.5942 20.3314 42.5824 20.4042C42.5512 20.6165 42.7546 21.2564 42.6996 21.6899C42.6566 22.0255 42.3314 22.4189 42.3879 22.6357C42.4621 22.9296 43.1421 23.0722 43.3128 23.28C43.5934 23.6185 43.194 24.9355 43.0738 25.4046C42.9654 25.8263 42.6803 26.291 42.615 26.6711C42.2349 28.8818 44.4471 29.884 44.4323 31.7131C44.4293 32.0754 44.214 32.2744 44.1992 32.5743C44.1829 32.9232 44.4323 33.1949 44.3744 33.4889C44.1665 34.5445 42.6759 36.7522 42.6907 37.643C42.6967 37.983 42.9699 38.0395 42.9981 38.1894C43.0263 38.3394 42.8778 38.5413 42.9624 38.8798C43.0471 39.2183 43.4331 39.4722 43.5147 39.7335C43.5578 39.8716 43.6588 40.6273 43.6543 40.7698C43.6365 41.3355 42.5556 42.5767 42.5066 43.1602C42.4962 43.2894 42.5794 44.0748 42.6135 44.1906C42.7249 44.5722 43.0664 44.8231 43.1287 45.506C43.2312 46.6285 42.7397 46.8111 42.6358 47.6826C42.5898 48.0686 42.661 49.8132 42.6996 50.2467C42.7382 50.6802 42.9788 51.0677 42.912 51.5324C42.857 51.9155 42.3003 52.4945 42.1013 52.8835C41.745 53.5813 40.6463 55.7163 40.486 56.3325C40.241 57.2738 41.1288 58.3368 39.95 59.0317C39.8802 58.0503 39.466 56.8017 39.4556 55.8529C39.4452 54.9042 39.6812 54.0312 39.7911 53.1612C39.9218 52.1219 39.4793 51.6275 39.218 50.7099C39.1616 50.5125 38.9137 49.5014 38.9226 49.3945C38.927 49.3484 39.5224 49.056 39.6664 48.8333C39.8965 48.474 40.1563 46.7116 40.1029 46.2707C40.0465 45.7985 39.5565 45.0977 39.5818 44.639C39.6011 44.2886 40.4592 43.3933 40.5364 42.9137C40.6181 42.4104 40.5112 41.7364 40.5439 41.1959C40.5676 40.798 40.7146 40.2947 40.7176 39.8835C40.7265 38.7818 40.3969 38.038 40.6983 36.8235C40.7636 36.5607 41.0769 36.1049 41.0605 35.9297C41.0397 35.7174 40.7101 35.4828 40.6567 35.1532C40.578 34.6603 40.7294 34.0664 40.627 33.5661C40.5572 33.2231 40.1653 32.7168 40.0287 32.3323C39.7391 31.5142 39.7956 30.6397 39.9099 29.783C39.9797 29.2619 40.3865 28.1365 40.3315 27.7282C40.3033 27.5174 39.9322 27.1937 39.8089 26.9487C39.3798 26.098 38.4549 24.5465 38.489 23.6215C38.5024 23.2637 38.7667 22.2556 38.8305 21.6988C38.8943 21.1421 39.1972 20.9312 38.8647 20.3492C38.7162 20.0894 38.0896 19.6069 38.0599 19.3114C38.0124 18.8512 39.9544 17.5996 39.6337 16.8958C39.5729 16.7637 39.3116 16.6345 39.224 16.4326C39.0176 15.956 39.4155 15.5032 39.4674 15.0073C39.5699 14.0333 39.3338 12.5308 39.4734 11.5657C39.515 11.2807 39.8371 10.9466 39.8 10.7105C39.7911 10.6541 39.4719 10.5131 39.3561 10.3765C39.2611 10.2636 38.9003 9.58513 38.8617 9.55692C38.7845 9.49902 37.1409 8.93038 37.0296 8.92147C36.4713 8.88287 36.0838 9.26444 35.2568 9.08479C34.7565 8.9764 34.0973 8.27117 34.023 8.27117H31.8123L31.8064 8.2682Z" fill="#A4C73F"/>
<path d="M27.467 0.64403C27.5501 0.728658 27.5635 0.929093 27.66 1.04045C28.3044 1.78428 28.8997 1.68035 29.6198 2.10201C29.8782 2.25345 30.0237 2.48952 30.2627 2.64541C30.5017 2.8013 31.5306 3.36994 31.6004 3.46348C31.8751 3.83466 31.4356 4.43744 31.6064 4.69727C31.7162 4.86504 33.6612 4.98827 33.5335 5.51682C33.1697 5.888 32.6353 5.86276 32.2032 6.12852C32.1052 6.18791 31.1446 7.01786 31.1075 7.08022C30.9754 7.30144 31.1075 7.80327 30.9204 8.18781C30.7482 8.54117 30.2182 8.81435 30.037 9.13653C29.89 9.39784 29.9049 9.70963 29.7831 9.96054C29.6792 10.1729 29.3808 10.348 29.3452 10.4965C29.2828 10.7608 29.6347 11.6798 29.6555 12.0896C29.6881 12.7043 29.3719 13.0606 29.458 13.5743C29.553 14.1459 30.2464 14.6195 30.2968 15.01C30.3622 15.5163 29.8485 16.4531 29.8618 17.0455C29.8841 18.0165 30.6665 19.3632 30.6294 20.6059C30.6086 21.3245 30.138 21.3809 29.8188 21.853C29.3615 22.5286 29.7193 22.9472 29.6376 23.7208C29.5768 24.2924 29.1135 25.1104 29.121 25.5514C29.1254 25.884 29.4862 27.2499 29.5961 27.6656C29.9405 28.9781 30.6636 30.3128 30.5136 31.707C30.4097 32.6676 29.55 33.0878 29.1254 33.8747C28.729 34.6081 28.879 35.2005 28.6488 35.876C28.2064 37.1737 27.0335 38.593 27.173 40.1015C27.2057 40.4638 27.5798 40.6167 27.6066 40.8691C27.6407 41.1942 27.2502 41.8134 27.274 42.2662C27.2874 42.5334 27.467 42.7279 27.4997 43.0175C27.5531 43.4822 27.3868 43.8712 27.3839 44.3091C27.3779 45.004 27.6333 46.5258 27.415 47.0351C27.3111 47.2771 27.0082 47.3751 26.9563 47.6601C26.8954 47.9897 27.0617 48.2985 27.0691 48.6207C27.0825 49.1983 27.1077 49.8946 27.0691 50.4618C27.029 51.0467 26.7024 52.0355 26.7306 52.5077C26.7514 52.8492 26.9845 52.8774 27.0424 53.0659C27.1122 53.2931 27.0394 53.5306 27.1478 53.8231C27.2977 54.2299 27.8768 54.7377 28.0401 55.1935C28.4083 56.2209 27.7268 56.4006 27.6095 57.1459C27.5323 57.6418 27.6615 58.2357 27.5932 58.7464C27.5442 59.1116 27.3022 59.4561 27.2755 59.8362C27.2488 60.2163 27.4314 60.5874 27.4002 60.9126C27.3794 61.1338 27.176 61.0789 27.0869 61.2541C26.7751 61.8717 27.0676 63.2198 26.9073 63.9889C26.6846 65.0593 25.8116 65.9873 25.4226 66.9241C25.3439 67.1127 25.3439 67.6977 25.0172 67.4319C24.6119 67.1023 25.5799 63.6474 25.6512 62.9481C25.6883 62.5814 25.7121 61.9044 25.6705 61.5525C25.6468 61.3535 25.4701 61.4129 25.3884 61.1902C25.1924 60.6468 25.1613 60.0678 24.9801 59.5466C24.6921 58.7108 23.5949 57.9907 23.8755 57.0835C24.1279 56.2699 24.5926 56.6366 24.462 55.2143C24.3952 54.4927 23.9275 53.2322 23.9319 52.6131C23.9334 52.2642 24.2289 52.0415 24.2586 51.743C24.2897 51.4253 24.0967 51.1566 24.0819 50.8745C24.0462 50.2287 24.4189 49.617 24.1606 48.9414C23.6617 47.6349 23.5207 46.9801 23.6157 45.5028C23.6498 44.9654 23.8933 44.4754 23.8042 43.9112C23.6662 43.0219 22.6269 42.3508 22.6328 41.4051C22.6373 40.7577 23.3054 40.0985 23.4553 39.5239C23.5325 39.2285 23.4776 38.9494 23.5563 38.6539C23.6573 38.2738 24.0255 38.0808 24.1502 37.7393C24.4308 36.9747 24.4827 35.5702 24.6104 34.7506C24.7411 33.9073 25.5206 33.0818 25.4537 32.139C25.43 31.8065 25.1405 31.3017 25.0455 30.9216C24.9222 30.4287 24.8198 29.5408 24.6639 29.1488C24.551 28.8667 24.2185 28.791 24.1561 28.4718C24.0982 28.1719 24.2214 26.2002 24.263 25.7815C24.3254 25.1431 24.8406 23.2605 24.6357 22.8181C24.4724 22.4632 23.8191 22.2524 23.7285 21.6793C23.58 20.7528 23.9349 19.2325 23.9304 18.2452C23.0604 16.7842 23.7612 15.8652 23.9275 14.5646C24.1309 12.9715 22.7204 13.4481 22.5452 12.0852C22.4235 11.1379 22.8036 11.6442 22.9624 11.4972C23.1525 11.3205 23.0708 9.24343 22.9594 8.86928C22.8748 8.58422 22.6877 8.53671 22.6447 8.42981C22.52 8.12545 23.1406 8.49662 22.9461 7.91462C22.7946 7.46327 21.5015 6.11664 21.0071 5.97411C20.3315 5.77813 20.5631 6.12852 20.3404 6.11664C19.4526 6.06765 18.9018 5.5584 17.766 5.71132C15.6799 5.99193 17.2226 6.99707 16.8766 7.72903C16.7994 7.89086 16.5559 7.93095 16.501 8.21898C16.4045 8.7223 16.795 9.51661 16.7044 9.81356C16.6569 9.97093 15.3593 10.4535 15.0282 10.786C14.1418 11.6798 14.507 13.7465 14.3422 14.9506C14.7847 14.9358 15.2924 14.8497 15.3221 15.4346C15.3919 16.7931 14.0646 17.6305 13.925 19.0053C13.7959 20.2926 14.3333 20.0461 14.4432 20.7217C14.5531 21.3972 14.2264 22.0653 14.2695 22.6414C14.3007 23.0571 14.6897 23.406 14.8262 23.7876C15.1484 24.6829 15.2524 25.6375 15.723 26.5551C16.0006 27.097 16.7474 27.7666 16.7103 28.3605C16.6836 28.794 16.0229 29.4651 15.8284 29.8541C15.6829 30.1466 15.631 30.5103 15.4988 30.8176C15.3771 31.0997 15.0029 31.5318 14.9866 31.8272C14.9673 32.1865 15.3266 32.2682 15.4454 32.5444C15.8151 33.4055 14.8589 34.9214 15.5255 35.6979C15.671 35.8671 16.0244 35.9725 16.1194 36.1819C16.2783 36.5308 16.1491 37.0519 16.06 37.4142C15.5374 39.5418 14.0527 42.8244 14.3511 44.955C14.4892 45.9379 15.1751 47.0737 14.9628 48.1723C14.7758 49.1389 14.7728 49.6274 14.6555 50.5597C14.6154 50.876 14.3868 51.2382 14.3779 51.5545C14.3645 52.0103 14.6867 52.4082 14.6703 53.0511C14.6124 55.2559 14.2131 56.7198 14.6897 59.0567C14.7787 59.4962 15.2019 60.1376 15.2063 60.479C15.2137 61.0046 14.7401 61.652 14.8262 62.2607C14.0319 61.7544 14.706 60.77 14.507 60.1019C14.366 59.6283 13.6949 59.1072 13.5078 58.5133C12.7625 56.1511 12.8501 52.8625 12.0662 50.4707C11.8138 49.7016 11.303 49.5724 11.4382 48.5302C11.4871 48.1486 11.7841 47.8264 11.7618 47.4434C11.7366 47.0232 11.1828 46.6342 11.11 46.1413C11.0091 45.4464 11.5139 44.563 11.208 43.9172C11.0714 43.6306 9.97126 43.0561 9.9386 42.4651C9.92969 42.3078 11.2644 40.1416 11.4471 39.7006C11.8316 38.7742 11.6698 38.7252 11.6445 37.8477C11.6148 36.7743 11.551 35.7097 11.5154 34.6363C11.4218 34.3305 10.7478 34.1746 10.6854 33.9533C10.6453 33.8108 10.972 32.1806 10.9957 31.8139C11.0402 31.1265 11.0596 30.0322 10.969 29.3641C10.868 28.6158 9.86585 24.956 9.56742 24.2983C9.47092 24.0845 9.25564 23.9732 9.1428 23.7534C8.81171 23.1135 8.48211 22.4632 8.20744 21.7966L9.70699 15.8622C9.42638 14.9774 9.83616 14.0004 9.69808 13.1764C9.65205 12.8988 9.45162 12.783 9.40559 12.6078C9.33581 12.339 9.43083 12.048 9.35808 11.7927C9.22594 11.325 7.765 11.0325 7.88674 10.2857C7.93722 9.97539 8.4049 9.74377 8.28464 9.31618C8.24604 9.17959 8.03224 9.04448 7.95355 8.88413C7.67146 8.30361 7.69522 7.97995 7.03452 7.64737C5.85418 7.05646 2.31168 6.3928 1.01999 6.53978C0.668117 6.57987 0.34742 6.89463 0 6.70459C0.146986 6.56354 0.27467 6.40171 0.437987 6.27996C1.53073 5.46783 3.01246 5.58067 4.22992 5.0046C4.47044 4.89028 4.55655 4.66757 4.75105 4.55622C5.52458 4.11675 6.57575 4.56067 7.38343 4.49535C7.85111 4.45675 10.047 3.42488 10.4493 3.13982C10.6735 2.98095 10.8621 2.42716 11.2659 2.36035C11.7722 2.98689 12.2132 3.81833 13.104 3.94749C13.735 4.03955 14.8589 3.91335 15.4468 4.08409C15.6814 4.15238 15.864 4.56216 16.0645 4.65421C16.6123 4.9081 16.9642 4.33203 17.3888 4.14941C17.6828 4.02321 18.0822 4.03064 18.3197 3.88959C18.5321 3.76487 19.0591 3.09824 19.3724 3.00768C20.0123 2.82209 20.8289 3.25414 21.5698 3.04628C21.8177 2.9765 21.8444 2.70777 22.0449 2.55336C23.1896 1.66402 24.9668 2.00402 26.2288 1.2394C26.4693 1.09389 26.9771 0.148139 27.4626 0.64106L27.467 0.64403Z" fill="#A4C73F"/>
</svg>
