<svg width="63" height="68" viewBox="0 0 63 68" fill="none" xmlns="http://www.w3.org/2000/svg">
<path d="M0.0768669 51.558C0.693695 50.9797 5.71827 54.5666 6.74632 55.1144C21.8072 63.1219 35.9814 63.8431 51.8358 57.5962C52.8188 57.209 57.3198 54.2309 57.2941 56.7753C57.2812 57.9479 52.7787 60.8795 51.6494 61.5846C36.3235 71.1792 17.4894 68.7665 4.24527 56.7801C3.63648 56.2292 -0.626702 52.2198 0.0784735 51.558H0.0768669Z" fill="#F59A28"/>
<path d="M57.696 62.4099C57.0455 61.6887 60.5649 56.0199 59.1787 54.0361C58.2052 52.6435 53.3092 53.7727 51.6338 53.6426C51.2916 53.6169 50.1881 53.8546 50.5993 53.0225C51.5856 51.0243 61.2781 49.5304 62.5022 51.9672C63.4724 53.898 60.687 62.0549 57.696 62.4099Z" fill="#F59A28"/>
<path d="M38.0796 44.458C31.0809 54.1923 12.0717 53.304 10.9151 39.2535C9.5915 23.1678 23.9681 20.2555 36.8203 19.825C37.6764 13.7564 34.9296 7.93183 27.9518 10.3301C23.7384 11.779 23.9279 16.418 22.3248 16.8453C21.9248 16.9513 15.1012 16.1899 14.0876 16.0261C10.0188 15.3691 14.3109 8.16475 16.012 6.32069C24.2508 -2.61368 47.6742 -1.89726 48.9448 12.9179C49.5504 19.976 47.4557 32.4379 50.1045 38.4809C50.678 39.7884 53.0923 42.3119 52.9654 43.4235C52.8915 44.0805 45.4414 50.5588 44.5499 50.5716C42.1918 50.607 38.5551 44.1062 38.0828 44.458H38.0796ZM36.8171 26.9218C32.6069 26.5941 26.5655 27.2479 24.5415 31.556C22.3055 36.3139 24.0307 42.8999 30.3195 41.9248C33.4647 41.4365 36.8171 36.3685 36.8171 33.3936V26.9218Z" fill="#090B0C"/>
</svg>
