<svg width="64" height="68" viewBox="0 0 64 68" fill="none" xmlns="http://www.w3.org/2000/svg">
<path d="M32.9489 0.611315C70.1532 3.89459 75.2612 56.6293 40.9973 66.2094C13.696 73.8415 -8.62502 46.2015 3.27967 20.7272C2.52025 20.4998 0.724718 19.7021 0.795318 18.8562C0.925069 17.3302 6.37272 10.8985 7.74847 9.59794C12.6447 4.96782 20.2981 1.26065 27.0166 0.611315C28.6213 0.457171 31.3346 0.468732 32.9489 0.611315ZM27.3543 6.29154C21.0518 6.93702 14.6329 10.0931 10.4809 14.9159C10.0611 15.4034 8.29991 17.5055 8.37433 17.9121C8.51362 18.6751 8.89906 18.4458 9.4257 18.1298C14.1292 15.3128 17.6382 13.0758 23.4236 12.5845C40.4859 11.1317 54.7299 27.7234 47.7214 44.3556C39.4574 63.9628 10.0516 54.5041 18.2144 34.6811C18.7334 33.421 19.6799 32.3843 20.2504 31.1705C20.5271 30.5808 20.8972 30.8159 20.0271 30.1068C9.78633 37.0337 11.5055 51.4058 21.0308 58.1477C31.5369 65.5813 46.5155 61.2729 53.6347 51.1745C67.8768 30.9778 51.3926 3.82715 27.3543 6.29154ZM43.9644 31.8063C35.1146 6.47266 -1.57455 19.4323 6.67993 45.0569L7.81334 44.4365C6.35555 27.0336 25.2058 16.2724 39.0834 27.5442C39.7074 28.051 43.4339 32.3612 43.9644 31.8063ZM29.4475 31.9123C26.0262 32.4961 22.8874 35.9297 22.4638 39.4018C21.3514 48.5156 33.0443 53.0281 38.4519 45.6966C34.7883 43.3825 37.431 43.4095 37.9309 40.4673C38.8354 35.1474 34.7196 31.0105 29.4475 31.9103V31.9123Z" fill="black"/>
</svg>
